<svg width="35" height="36" viewBox="0 0 35 36" fill="none" xmlns="http://www.w3.org/2000/svg">
<path d="M2.91699 18.1488C2.91699 26.1988 9.45032 32.7321 17.5004 32.7321C25.5504 32.7321 32.0837 26.1988 32.0837 18.1488C32.0837 10.0988 25.5504 3.56543 17.5004 3.56543C9.45032 3.56543 2.91699 10.0988 2.91699 18.1488ZM29.167 18.1488C29.167 24.5946 23.9462 29.8154 17.5004 29.8154C11.0545 29.8154 5.83365 24.5946 5.83365 18.1488C5.83365 11.7029 11.0545 6.48209 17.5004 6.48209C23.9462 6.48209 29.167 11.7029 29.167 18.1488ZM11.667 18.1488L17.5004 12.3154L19.5566 14.3717L17.2524 16.6904H23.3337V19.6071H17.2524L19.5712 21.9258L17.5004 23.9821L11.667 18.1488Z" fill="#DBB800"/>
</svg>
