<svg width="35" height="36" viewBox="0 0 35 36" fill="none" xmlns="http://www.w3.org/2000/svg">
<path d="M32.0837 18.1488C32.0837 26.1988 25.5503 32.7321 17.5003 32.7321C9.45032 32.7321 2.91699 26.1988 2.91699 18.1488C2.91699 10.0988 9.45032 3.56543 17.5003 3.56543C25.5503 3.56543 32.0837 10.0988 32.0837 18.1488ZM5.83366 18.1488C5.83366 24.5946 11.0545 29.8154 17.5003 29.8154C23.9462 29.8154 29.167 24.5946 29.167 18.1488C29.167 11.7029 23.9462 6.48209 17.5003 6.48209C11.0545 6.48209 5.83366 11.7029 5.83366 18.1488ZM23.3337 18.1488L17.5003 12.3154L15.4441 14.3717L17.7483 16.6904H11.667V19.6071H17.7483L15.4295 21.9258L17.5003 23.9821L23.3337 18.1488Z" fill="#DBB800"/>
</svg>
