<svg width="25" height="39" viewBox="0 0 25 39" fill="none" xmlns="http://www.w3.org/2000/svg">
<path d="M0.273438 0.074585H24.2534H0.273438ZM24.2534 18.9446H0.273438H24.2534ZM-0.976562 18.9446V0.074585H1.52344V18.9446H-0.976562ZM24.2534 0.074585V18.9446V0.074585Z" fill="white" fill-opacity="0.16" mask="url(#path-1-inside-1_446_7963)"/>
<path d="M13.2981 6.20239C13.1097 5.9506 12.6871 5.9506 12.4987 6.20239L8.00247 12.1974C7.88857 12.3488 7.87058 12.5511 7.95501 12.7205C8.03994 12.8898 8.21279 12.9967 8.40214 12.9967H17.3946C17.584 12.9967 17.7568 12.8898 17.8418 12.7205C17.9262 12.5511 17.9082 12.3488 17.7943 12.1974L13.2981 6.20239Z" fill="white" fill-opacity="0.8"/>
<g opacity="0.4">
<path d="M-0.976562 16.6946H24.2534V19.1946H1.52344L-0.976562 16.6946ZM24.2534 38.0646H0.273438H24.2534ZM-0.976562 38.0646V16.6946L1.52344 19.1946V38.0646H-0.976562ZM24.2534 17.9446V38.0646V17.9446Z" fill="white" fill-opacity="0.16" mask="url(#path-4-inside-2_446_7963)"/>
<path d="M17.3943 25.1226H8.40177C8.21243 25.1226 8.03957 25.2295 7.95465 25.3988C7.87072 25.5682 7.8887 25.7705 8.00211 25.9219L12.4984 31.9169C12.5923 32.0428 12.7407 32.1167 12.898 32.1167C13.0554 32.1167 13.2033 32.0428 13.2977 31.9169L17.7939 25.9219C17.9078 25.7705 17.9258 25.5682 17.8414 25.3988C17.7565 25.2295 17.5836 25.1226 17.3943 25.1226Z" fill="white" fill-opacity="0.8"/>
</g>
</svg>
