<svg width="25" height="39" viewBox="0 0 25 39" fill="none" xmlns="http://www.w3.org/2000/svg">
<path d="M0.234375 0.0495605H24.2144H0.234375ZM24.2144 18.9196H0.234375H24.2144ZM-1.01562 18.9196V0.0495605H1.48438V18.9196H-1.01562ZM24.2144 0.0495605V18.9196V0.0495605Z" fill="white" fill-opacity="0.16" mask="url(#path-1-inside-1_446_7990)"/>
<path d="M13.2512 6.18726C13.0628 5.93547 12.6402 5.93547 12.4518 6.18726L7.9556 12.1823C7.84169 12.3336 7.82371 12.536 7.90813 12.7053C7.99306 12.8747 8.16592 12.9816 8.35526 12.9816H17.3478C17.5371 12.9816 17.71 12.8747 17.7949 12.7053C17.8793 12.536 17.8613 12.3336 17.7474 12.1823L13.2512 6.18726Z" fill="white" fill-opacity="0.8"/>
<g opacity="0.4">
<path d="M-1.01562 16.6696H24.2144V19.1696H1.48438L-1.01562 16.6696ZM24.2144 38.0396H0.234375H24.2144ZM-1.01562 38.0396V16.6696L1.48438 19.1696V38.0396H-1.01562ZM24.2144 17.9196V38.0396V17.9196Z" fill="white" fill-opacity="0.16" mask="url(#path-4-inside-2_446_7990)"/>
<path d="M17.3474 25.1074H8.3549C8.16556 25.1074 7.9927 25.2143 7.90777 25.3837C7.82384 25.5531 7.84183 25.7554 7.95523 25.9068L12.4515 31.9018C12.5454 32.0276 12.6938 32.1016 12.8511 32.1016C13.0085 32.1016 13.1564 32.0276 13.2508 31.9018L17.7471 25.9068C17.861 25.7554 17.879 25.5531 17.7945 25.3837C17.7096 25.2143 17.5367 25.1074 17.3474 25.1074Z" fill="white" fill-opacity="0.8"/>
</g>
</svg>
