<svg width="25" height="39" viewBox="0 0 25 39" fill="none" xmlns="http://www.w3.org/2000/svg">
<path d="M0.234375 0.0395508H24.2144H0.234375ZM24.2144 18.9096H0.234375H24.2144ZM-1.01562 18.9096V0.0395508H1.48438V18.9096H-1.01562ZM24.2144 0.0395508V18.9096V0.0395508Z" fill="white" fill-opacity="0.16" mask="url(#path-1-inside-1_446_8155)"/>
<path d="M13.2512 6.16711C13.0628 5.91532 12.6402 5.91532 12.4518 6.16711L7.9556 12.1621C7.84169 12.3135 7.82371 12.5158 7.90813 12.6852C7.99306 12.8545 8.16592 12.9614 8.35526 12.9614H17.3478C17.5371 12.9614 17.71 12.8545 17.7949 12.6852C17.8793 12.5158 17.8613 12.3135 17.7474 12.1621L13.2512 6.16711Z" fill="white" fill-opacity="0.8"/>
<g opacity="0.4">
<path d="M-1.01562 16.6597H24.2144V19.1597H1.48438L-1.01562 16.6597ZM24.2144 38.0297H0.234375H24.2144ZM-1.01562 38.0297V16.6597L1.48438 19.1597V38.0297H-1.01562ZM24.2144 17.9097V38.0297V17.9097Z" fill="white" fill-opacity="0.16" mask="url(#path-4-inside-2_446_8155)"/>
<path d="M17.3474 25.0874H8.3549C8.16556 25.0874 7.9927 25.1943 7.90777 25.3637C7.82384 25.533 7.84183 25.7354 7.95523 25.8867L12.4515 31.8817C12.5454 32.0076 12.6938 32.0816 12.8511 32.0816C13.0085 32.0816 13.1564 32.0076 13.2508 31.8817L17.7471 25.8867C17.861 25.7354 17.879 25.533 17.7945 25.3637C17.7096 25.1943 17.5367 25.0874 17.3474 25.0874Z" fill="white" fill-opacity="0.8"/>
</g>
</svg>
