<svg width="25" height="39" viewBox="0 0 25 39" fill="none" xmlns="http://www.w3.org/2000/svg">
<path d="M0.273438 0.0546875H24.2534H0.273438ZM24.2534 18.9247H0.273438H24.2534ZM-0.976562 18.9247V0.0546875H1.52344V18.9247H-0.976562ZM24.2534 0.0546875V18.9247V0.0546875Z" fill="white" fill-opacity="0.16" mask="url(#path-1-inside-1_446_8128)"/>
<path d="M13.2981 6.19226C13.1097 5.94047 12.6871 5.94047 12.4987 6.19226L8.00247 12.1873C7.88857 12.3386 7.87058 12.541 7.95501 12.7103C8.03994 12.8797 8.21279 12.9866 8.40214 12.9866H17.3946C17.584 12.9866 17.7568 12.8797 17.8418 12.7103C17.9262 12.541 17.9082 12.3386 17.7943 12.1873L13.2981 6.19226Z" fill="white" fill-opacity="0.8"/>
<g opacity="0.4">
<path d="M-0.976562 16.6748H24.2534V19.1748H1.52344L-0.976562 16.6748ZM24.2534 38.0448H0.273438H24.2534ZM-0.976562 38.0448V16.6748L1.52344 19.1748V38.0448H-0.976562ZM24.2534 17.9248V38.0448V17.9248Z" fill="white" fill-opacity="0.16" mask="url(#path-4-inside-2_446_8128)"/>
<path d="M17.3943 25.1125H8.40177C8.21243 25.1125 8.03957 25.2195 7.95465 25.3888C7.87072 25.5582 7.8887 25.7605 8.00211 25.9119L12.4984 31.9069C12.5923 32.0328 12.7407 32.1067 12.898 32.1067C13.0554 32.1067 13.2033 32.0328 13.2977 31.9069L17.7939 25.9119C17.9078 25.7605 17.9258 25.5582 17.8414 25.3888C17.7565 25.2195 17.5836 25.1125 17.3943 25.1125Z" fill="white" fill-opacity="0.8"/>
</g>
</svg>
