<svg width="30" height="31" viewBox="0 0 30 31" fill="none" xmlns="http://www.w3.org/2000/svg">
<path d="M29.9149 15.5013C29.929 17.467 29.554 19.416 28.8115 21.2361C28.069 23.0563 26.9737 24.7115 25.5886 26.1064C24.2036 27.5014 22.5562 28.6085 20.7413 29.364C18.9265 30.1195 16.9801 30.5085 15.0143 30.5085C13.0485 30.5085 11.1021 30.1195 9.28724 29.364C7.47241 28.6085 5.82501 27.5014 4.43996 26.1064C3.05491 24.7115 1.95958 23.0563 1.21707 21.2361C0.474565 19.416 0.0995616 17.467 0.113665 15.5013C0.0995616 13.5356 0.474565 11.5866 1.21707 9.76648C1.95958 7.94636 3.05491 6.29115 4.43996 4.89619C5.82501 3.50124 7.47241 2.39411 9.28724 1.63861C11.1021 0.883099 13.0485 0.494141 15.0143 0.494141C16.9801 0.494141 18.9265 0.883099 20.7413 1.63861C22.5562 2.39411 24.2036 3.50124 25.5886 4.89619C26.9737 6.29115 28.069 7.94636 28.8115 9.76648C29.554 11.5866 29.929 13.5356 29.9149 15.5013Z" fill="#37C837"/>
<path d="M19.2649 25.0209C20.1086 24.758 21.0295 24.4011 21.3395 24.2169C21.5478 24.0931 21.5771 24.0514 21.5051 23.9816C20.9829 23.4758 17.3095 20.2573 17.2772 20.2774C17.2535 20.292 17.1935 20.5214 17.1439 20.7872C17.046 21.3118 16.9538 21.4318 16.6487 21.4316C16.3976 21.4316 16.2319 21.2908 15.9911 20.873C15.8862 20.6909 15.7165 20.4345 15.6141 20.3033C15.5116 20.172 15.3046 19.8442 15.154 19.5747C15.0034 19.3052 14.7388 18.8612 14.5659 18.588C14.1696 17.9617 13.7085 17.1982 13.534 16.8795C13.4601 16.7446 13.2779 16.4696 13.1291 16.2684C12.9802 16.0672 12.7904 15.7692 12.7073 15.6061C12.6242 15.443 12.386 15.0562 12.1779 14.7466C11.9698 14.437 11.7198 14.0262 11.6223 13.8338C11.5248 13.6413 11.3458 13.3284 11.2244 13.1383C10.9454 12.7014 10.6206 12.052 10.5644 11.819C10.5302 11.677 10.559 11.6045 10.7039 11.4682C10.8993 11.2843 10.9121 11.2844 11.5337 11.4716C11.7439 11.535 11.9296 11.5732 11.9462 11.5565C11.9762 11.5266 10.5538 6.01346 10.5029 5.9627C10.4657 5.92542 8.80028 7.32413 8.80028 7.39277C8.80028 7.42387 8.65533 7.59354 8.47817 7.76983C8.301 7.94612 8.04958 8.25933 7.91944 8.46585C7.71428 8.79142 7.67308 8.92793 7.60956 9.49251C7.40796 11.2843 7.88057 13.933 8.77757 16.0382C9.26044 17.1714 9.55053 17.7396 9.89344 18.2234C10.0485 18.4422 10.2571 18.7851 10.3571 18.9854C10.8941 20.0618 12.5866 22.0243 13.7677 22.94C14.5827 23.572 16.3123 24.7021 16.712 24.864C17.881 25.3374 18.1892 25.3563 19.265 25.0211L19.2649 25.0209ZM22.2464 22.9899C22.4998 22.3671 22.5069 22.3307 22.3954 22.2256C22.3013 22.1367 19.3336 19.5527 18.9241 19.2029C18.8284 19.1212 18.7321 19.1514 18.1368 19.4501C17.5656 19.7368 17.4731 19.8045 17.5504 19.879C17.8329 20.1511 21.945 23.679 21.9611 23.663C21.9717 23.6525 22.1 23.3495 22.2464 22.9899ZM13.1262 11.0793C13.407 10.8654 13.6359 10.6866 13.6349 10.6819C13.5588 10.3268 12.4489 5.98638 12.4294 5.96671C12.3913 5.92863 10.9747 5.72997 10.9458 5.75869C10.9279 5.77665 11.3168 7.28025 12.3845 11.3207C12.4601 11.607 12.4131 11.6223 13.1262 11.0793Z" fill="white"/>
</svg>
