<svg width="26" height="26" viewBox="0 0 26 26" fill="none" xmlns="http://www.w3.org/2000/svg">
<g clip-path="url(#clip0_402_6128)">
<path d="M25.5893 13.2813C25.5918 14.9194 25.27 16.5418 24.6427 18.055C24.0153 19.5682 23.0947 20.9424 21.9339 22.0982C20.7731 23.2541 19.395 24.1689 17.8791 24.7899C16.3632 25.4109 14.7394 25.7258 13.1012 25.7164C11.4631 25.7071 9.84294 25.3738 8.33418 24.7356C6.82543 24.0974 5.45786 23.167 4.31028 21.998C3.1627 20.829 2.25779 19.4445 1.64767 17.9242C1.03755 16.404 0.734293 14.778 0.755362 13.1401C0.752926 11.5019 1.07466 9.87955 1.70203 8.36633C2.3294 6.85311 3.25001 5.47898 4.41081 4.3231C5.57162 3.16722 6.94967 2.25244 8.46559 1.63146C9.98151 1.01049 11.6053 0.695586 13.2435 0.704903C14.8816 0.714221 16.5018 1.04757 18.0105 1.68575C19.5193 2.32393 20.8868 3.25433 22.0344 4.42334C23.182 5.59235 24.0869 6.97686 24.697 8.49712C25.3072 10.0174 25.6104 11.6433 25.5893 13.2813Z" fill="#37C837"/>
<mask id="mask0_402_6128" style="mask-type:luminance" maskUnits="userSpaceOnUse" x="0" y="9" width="26" height="8">
<path d="M1.09034 9.59253L1.06608 10.6737C1.05371 11.2688 1.02795 11.8632 1.00682 11.9954C0.985699 12.1275 0.961524 12.3361 0.955035 12.4582C0.948554 12.5802 0.939789 12.4216 0.93376 12.1062L0.921505 11.5318L0.898589 11.9223L0.875688 12.3103L0.849229 11.9583C0.834882 11.7649 0.812834 11.4556 0.79881 11.2724L0.772233 10.9411L0.751914 11.3291C0.740195 11.2732 0.728483 11.2205 0.716581 11.1737L0.698675 14.3219C0.707708 14.288 0.71589 14.2614 0.725087 14.2264C0.739145 14.2406 0.75957 14.5226 0.770681 14.8527L0.790543 15.453L0.807048 14.8244C0.81567 14.4786 0.830896 14.2541 0.840929 14.3253L0.858306 14.4548L0.88491 14.3256C0.909382 14.2059 0.911099 14.2125 0.920699 14.4008C0.931051 14.6038 0.932167 14.6026 0.95734 14.326C0.97289 14.1551 0.986159 14.4887 0.991204 15.1954L1.00021 16.3416L1.02501 15.6199C1.03893 15.2186 1.05222 15.052 1.05561 15.2424C1.05914 15.4405 1.07624 15.584 1.09764 15.5841C1.11799 15.5842 1.13903 15.6716 1.1431 15.7784C1.14939 15.7137 1.16517 15.2919 1.17761 14.7153L1.20545 13.4581L1.204 15.0776L1.20257 16.6944L1.23879 16.6946L1.25105 15.4478L1.25364 15.4478C1.261 14.701 1.27449 14.2811 1.29062 14.4029C1.30546 14.5148 1.32067 14.7792 1.32348 14.9929C1.32629 15.2065 1.34149 15.4735 1.35633 15.5855C1.37785 15.748 1.38414 15.68 1.39444 15.252C1.40154 14.957 1.42085 14.4761 1.43675 14.1812L1.46568 13.6432L1.47846 14.1245L1.48866 14.6057L1.51467 14.1247C1.53384 13.7505 1.5406 13.8959 1.5446 14.7742C1.55117 16.2129 1.59519 16.6783 1.61541 15.5145C1.62336 15.0568 1.64071 14.7134 1.65336 14.7541C1.66601 14.7949 1.68624 14.6867 1.69869 14.5138C1.71536 14.2827 1.72449 14.4103 1.73217 14.9952C1.74092 15.6609 1.74435 15.7108 1.75631 15.3006C1.76459 15.0162 1.78481 14.8118 1.80565 14.8119C1.82671 14.812 1.84575 14.6251 1.84961 14.3594C1.85324 14.1102 1.86865 13.8064 1.88449 13.6844C1.90931 13.4933 1.91558 13.531 1.92431 13.9615C1.93242 14.3617 1.9377 14.4001 1.94907 14.1556C1.95688 13.9878 1.97856 13.8505 1.99737 13.8506C2.01618 13.8508 2.03378 14.0226 2.03918 14.2312L2.04997 14.609L2.06541 14.1667L2.08346 13.7218L2.10776 13.9987C2.12128 14.1514 2.13445 14.7011 2.13703 15.22C2.14126 16.0715 2.14557 16.1254 2.17535 15.7583C2.22252 15.1771 2.23499 15.1233 2.24679 15.4793C2.25578 15.7506 2.25921 15.7683 2.2771 15.6088C2.29761 15.4262 2.29991 15.4279 2.32054 15.7022C2.33352 15.8748 2.34819 15.5952 2.36096 14.9626L2.38227 13.946L2.39865 14.7041L2.41503 15.4622L2.43623 14.4637C2.45328 13.6894 2.46093 13.5918 2.46716 14.0293C2.47192 14.363 2.48921 14.5934 2.51052 14.5935C2.53034 14.5936 2.54725 14.5036 2.54787 14.3945C2.54939 14.1265 2.59204 13.8541 2.63114 13.8543C2.64872 13.8544 2.6619 13.9047 2.66155 13.9657C2.66043 14.1621 2.73394 14.0846 2.73962 13.8834C2.75135 13.4679 2.79855 13.4533 2.83032 13.8555L2.85916 14.2437L2.90534 13.8559C2.94822 13.4836 2.9484 13.5148 2.95524 14.6323L2.96413 15.7991L2.99146 14.6325L3.01619 13.4685L3.02872 14.4491C3.03813 15.3293 3.04009 15.3787 3.0622 14.9305L3.08832 14.4313L3.10048 15.0238L3.11264 15.6137L3.13732 14.9128L3.16202 14.2092L3.1699 15.0966C3.17692 15.8134 3.18431 15.9249 3.20802 15.6712C3.22418 15.4983 3.24358 15.147 3.25126 14.8927L3.26681 14.4323L3.28456 14.9498C3.29487 15.2348 3.30644 15.3664 3.31136 15.2423C3.32653 14.859 3.3701 14.4484 3.39335 14.4719C3.40552 14.4841 3.42366 14.912 3.4319 15.4241L3.4473 16.3555L3.4649 15.0802C3.48533 13.5755 3.54276 13.2267 3.55062 14.5633L3.55582 15.4689L3.58009 14.8403C3.59031 14.581 3.60362 14.408 3.61114 14.3852C3.61255 14.388 3.6152 14.3981 3.61613 14.4163C3.62452 14.58 3.63266 14.5994 3.65691 14.5252C3.67349 14.4744 3.68949 14.3512 3.69209 14.2511C3.69849 14.0048 3.73246 14.0575 3.76645 14.3654L3.79347 14.6191L3.80798 14.3423C3.81946 14.1154 3.82484 14.1562 3.84033 14.565C3.85821 15.0363 3.86228 15.0148 3.88135 14.1772C3.89955 13.3776 3.90157 13.3354 3.9173 13.7686C3.92689 14.0332 3.94629 14.2077 3.95906 14.1569C3.98104 14.0696 3.98324 14.0706 3.98756 14.1493C3.99008 14.1951 4.00559 14.2322 4.02331 14.2323C4.04103 14.2324 4.07031 14.3198 4.08687 14.4267L4.11681 14.6209L4.13908 14.3442L4.16393 14.0676L4.17529 14.3444C4.18611 14.5963 4.18994 14.6036 4.20328 14.4274C4.21136 14.3206 4.23166 14.2335 4.25094 14.2336C4.27022 14.2337 4.28965 14.1044 4.29396 13.9467L4.30336 13.6596L4.32537 13.8822L4.34998 14.1048L4.35636 13.8927C4.36044 13.7758 4.37967 13.6807 4.39895 13.6808C4.41823 13.6809 4.44112 13.5939 4.4492 13.4871C4.45729 13.3803 4.46768 13.7821 4.47257 14.3823L4.48189 15.4741L4.50773 14.5687L4.53359 13.6608L4.54395 14.569C4.54943 15.0319 4.55303 15.2481 4.55804 15.2753C4.5621 15.2521 4.56944 15.1414 4.57796 14.9572L4.6016 14.4399L4.62009 14.8281L4.63599 15.2162L4.65187 14.6989C4.66041 14.4141 4.68093 13.9307 4.69678 13.6255C4.72264 13.1278 4.72505 13.1936 4.7319 14.2725C4.73882 15.3618 4.74303 15.4153 4.76495 14.8289L4.78933 14.1823L4.80492 14.6247L4.82051 15.0698L4.83627 14.5706C4.84549 14.2526 4.86147 14.1031 4.87999 14.1621C4.89951 14.2243 4.91405 14.128 4.92305 13.8674L4.93561 13.4794L4.9468 13.7848C4.9527 13.9527 4.97211 14.0902 4.99163 14.0903C5.01115 14.0904 5.02813 14.0403 5.02848 13.9793C5.02882 13.9182 5.04498 13.8681 5.06532 13.8682C5.08567 13.8683 5.10385 13.9186 5.1035 13.9797C5.10315 14.0407 5.11704 14.091 5.13649 14.0911C5.15594 14.0912 5.17931 13.9698 5.18717 13.8224C5.18845 13.7984 5.19116 13.7872 5.19257 13.7836C5.19927 13.8142 5.20815 14.0431 5.21242 14.3865C5.22032 15.0215 5.22725 15.1318 5.24341 14.8497L5.26362 14.4799L5.28148 14.9793L5.30192 15.4787L5.32154 14.757L5.33858 14.0353L5.35849 14.6279L5.37581 15.2204L5.38795 14.4521C5.3956 13.9703 5.41305 13.6865 5.43627 13.6866C5.45924 13.6868 5.4746 13.9071 5.47435 14.2689C5.47391 14.9222 5.51829 14.9169 5.56753 14.2591C5.59023 13.9559 5.60525 13.886 5.62343 13.9826C5.64455 14.0949 5.64709 14.0842 5.65236 13.9C5.6557 13.783 5.67337 13.688 5.69237 13.6881C5.71136 13.6882 5.7359 13.6408 5.7447 13.5849C5.75349 13.529 5.76078 13.8606 5.7612 14.3223C5.76167 14.8358 5.77512 15.1724 5.79767 15.1866C5.82153 15.2015 5.83733 15.0361 5.83914 14.7186C5.84215 14.1899 5.90266 14.0871 5.92273 14.5768C5.92899 14.7294 5.94314 14.5445 5.95351 14.1682L5.97033 13.4853L5.98818 13.9847L6.00604 14.4841L6.03902 14.1428C6.06663 13.852 6.07766 13.8072 6.12087 13.8509C6.15284 13.8833 6.17665 14.0122 6.18359 14.1954C6.18524 14.239 6.18639 14.2628 6.18833 14.2704C6.19369 14.2583 6.20255 14.1282 6.20859 13.8928C6.22501 13.2531 6.27588 13.2534 6.28619 13.8933C6.29357 14.3512 6.34726 14.2388 6.36474 13.7281L6.37709 13.3764L6.40012 13.8758C6.41301 14.1505 6.42775 14.6263 6.43292 14.9315C6.43669 15.1542 6.44061 15.2826 6.44373 15.3041C6.44814 15.2689 6.45566 15.0615 6.46813 14.6523L6.49355 13.822L6.50182 15.0975L6.51268 16.3729L6.53857 15.0045L6.56705 13.6362L6.57324 14.821L6.58204 16.0033L6.61685 15.3412C6.63552 14.9771 6.65804 14.6627 6.6674 14.6404C6.67609 14.6538 6.68729 14.8229 6.69097 15.0442L6.6988 15.4866L6.72139 15.153C6.7327 14.9948 6.74057 14.914 6.74612 14.897C6.75058 14.9023 6.75632 14.9452 6.76352 15.0239C6.77376 15.1358 6.79047 14.8796 6.80039 14.4524C6.81408 13.863 6.82543 13.7468 6.84194 13.9714L6.86353 14.2664L6.87556 13.9716C6.89139 13.6069 6.93993 13.7428 6.95449 14.1945C6.95844 14.3171 6.96093 14.3807 6.9637 14.3938C6.96598 14.3845 6.97082 14.3483 6.97467 14.2852C6.99633 13.9299 7.03229 13.6957 7.06338 13.6958C7.07996 13.6959 7.11006 13.7913 7.12943 13.9084L7.16444 14.1207L7.17135 13.8155C7.17508 13.6399 7.19319 13.5103 7.21448 13.5104C7.23559 13.5106 7.25372 13.6418 7.25672 13.816C7.25891 13.9431 7.26032 14.0093 7.2633 14.023C7.26604 14.0178 7.27196 13.9812 7.27688 13.9092C7.28489 13.7923 7.30638 13.6972 7.32465 13.6973C7.34292 13.6974 7.36423 13.6103 7.37232 13.5036C7.3804 13.3968 7.38715 13.9148 7.38903 14.6575L7.3917 16.0079L7.44595 15.5658C7.51009 15.0337 7.52758 14.9764 7.54077 15.2689C7.54627 15.391 7.56458 15.0343 7.57891 14.4749L7.60538 13.4583L7.61212 14.5475C7.62045 15.7158 7.66488 15.6956 7.68993 14.5117C7.69708 14.1737 7.70247 14.0208 7.7083 14.0099C7.71251 14.0236 7.71989 14.0993 7.72778 14.2248C7.75502 14.6581 7.79726 14.7428 7.79941 14.3649C7.80026 14.2157 7.81408 14.1066 7.82926 14.1219C7.84443 14.1372 7.865 14.4852 7.87401 14.8957C7.87973 15.1562 7.88331 15.3127 7.88699 15.3433C7.89228 15.3074 7.90044 14.9957 7.91087 14.3293L7.93127 13.0152L7.95265 13.8044C7.97422 14.5758 8.01271 14.8713 8.02946 14.3998C8.03226 14.3211 8.03536 14.2748 8.038 14.2628C8.04216 14.2711 8.05007 14.3487 8.05985 14.5138L8.07854 14.8658L8.09627 14.4778L8.1114 14.0898L8.13311 14.3668C8.15394 14.6287 8.1573 14.6163 8.17308 14.1626L8.18874 13.6815L8.20711 14.0904C8.2252 14.4968 8.22479 14.4954 8.26287 14.2925C8.2963 14.1144 8.30315 14.176 8.31694 14.7921L8.33364 15.4959L8.35225 14.4974C8.37042 13.493 8.41712 13.3123 8.43424 14.1823C8.44094 14.5232 8.44587 14.5767 8.4564 14.379C8.46426 14.2315 8.48762 14.1101 8.50708 14.1102C8.52653 14.1104 8.54053 14.1422 8.54029 14.1829C8.54006 14.2236 8.5568 14.258 8.57608 14.2581C8.59536 14.2582 8.61825 14.1711 8.62634 14.0643C8.63797 13.9106 8.64322 13.9344 8.65153 14.1835L8.66267 14.4992L8.6898 14.2768C8.70564 14.1549 8.72369 13.9303 8.72885 13.7778L8.73818 13.501L8.78607 13.7238C8.81292 13.846 8.8375 14.1791 8.83878 14.464C8.84006 14.7488 8.86041 15.2563 8.8841 15.5922L8.92719 16.2029L8.94364 15.1294C8.95244 14.5394 8.9709 13.7573 8.98715 13.3912C9.01179 12.8363 9.01797 13.0158 9.02243 14.465L9.02807 16.2035L9.0576 14.6489L9.08454 13.0968L9.09228 14.4654C9.09642 15.2182 9.11166 15.7098 9.12487 15.5573C9.14862 15.2833 9.14836 15.2816 9.16679 15.4645C9.16878 15.4841 9.17215 15.4923 9.17439 15.493C9.18363 15.4719 9.19556 15.3101 9.20273 15.0585C9.20999 14.8042 9.22129 14.6408 9.22844 14.6318C9.22947 14.6365 9.23 14.6469 9.23087 14.6603C9.25522 15.0393 9.31346 14.8511 9.3231 14.3633C9.33237 13.8935 9.3346 13.886 9.35514 14.1875C9.36692 14.3606 9.38089 14.4504 9.38506 14.3843C9.38923 14.3182 9.40939 14.2629 9.42973 14.263C9.45008 14.2631 9.46836 14.176 9.47222 14.0692C9.47703 13.9361 9.48359 13.9118 9.49334 13.9943C9.50164 14.0644 9.53032 14.1161 9.55991 14.1163C9.5895 14.1164 9.61618 14.065 9.62526 13.995C9.62561 13.9926 9.62755 13.9912 9.62789 13.9899C9.63541 14.0236 9.64426 14.3639 9.64645 14.8178C9.64897 15.3367 9.66072 15.86 9.67346 15.9821C9.69545 16.1929 9.69855 16.1817 9.72636 15.778C9.74246 15.5441 9.75945 15.1795 9.7646 14.9659L9.77456 14.5779L9.79595 14.9092C9.80757 15.0924 9.82206 15.2008 9.82821 15.15L9.83908 15.0595L9.86702 15.1502C9.88872 15.2193 9.8999 15.178 9.90935 14.9849C9.91943 14.7787 9.9264 14.8211 9.94181 15.1894C9.95908 15.6018 9.96276 15.5559 9.97776 14.7809C9.99509 13.8852 10.0431 13.4171 10.0599 13.9871L10.0686 14.2821L10.0956 14.0805C10.1182 13.9041 10.1239 13.8933 10.1348 14.0057C10.1361 14.019 10.1379 14.0261 10.1399 14.0264C10.1483 14.0111 10.1624 13.8969 10.1726 13.7291C10.1911 13.4247 10.1985 13.5956 10.2049 14.4122C10.2116 15.2671 10.2181 15.4094 10.2374 15.0618L10.2633 14.6169L10.2767 14.987C10.2897 15.3568 10.2893 15.3555 10.3139 14.8009L10.3378 14.2474L10.3497 14.8761L10.3617 15.5049L10.387 14.6927C10.4076 14.0295 10.4155 13.9674 10.4199 14.3669C10.4263 14.9571 10.494 15.044 10.5072 14.4786L10.5145 14.101L10.5388 14.3779L10.5605 14.6549L10.5669 14.4402C10.5718 14.3078 10.5893 14.2348 10.612 14.249C10.6353 14.2636 10.6513 14.1664 10.6523 13.9853C10.6532 13.8282 10.6616 13.7085 10.6719 13.719C10.6823 13.7295 10.7028 13.8608 10.7194 14.0116C10.749 14.2801 10.752 14.2831 10.7578 14.0868C10.771 13.6418 10.7999 13.9828 10.8477 15.104C10.8754 15.7539 10.9034 16.3104 10.9105 16.341C10.9176 16.3716 10.9353 15.748 10.9469 14.9546L10.968 13.5137L10.979 14.7711C10.986 15.4629 11 15.87 11.01 15.6768C11.0175 15.5325 11.0228 15.4482 11.0269 15.4363C11.0318 15.4599 11.0385 15.5961 11.0478 15.8633C11.0636 16.3205 11.0685 16.2301 11.0874 15.253C11.1096 14.1114 11.1093 14.1084 11.1262 14.8082L11.1455 15.512L11.1604 14.6998C11.178 13.8536 11.2325 13.7788 11.2413 14.589C11.2437 14.8128 11.2573 15.1115 11.2711 15.254C11.2946 15.4963 11.2967 15.4823 11.3085 15.0499C11.3154 14.7956 11.336 14.431 11.3519 14.2378L11.3798 13.8861L11.3905 14.2742C11.3953 14.4367 11.3983 14.5277 11.4019 14.5407C11.4067 14.5179 11.4154 14.377 11.4278 14.0908L11.4517 13.5166L11.4608 14.1996L11.4698 14.8852L11.5378 14.2932L11.6059 13.7011L11.6139 14.1099C11.6236 14.5083 11.6253 14.5096 11.6392 14.211C11.6495 13.9893 11.6676 13.9059 11.703 13.9061C11.7325 13.9062 11.7663 13.8296 11.7895 13.7125C11.8213 13.5521 11.8283 13.655 11.8326 14.313C11.8356 14.7723 11.8489 15.0553 11.865 14.9806C11.8863 14.8825 11.8969 14.9301 11.9027 15.1826C11.9099 15.4965 11.9115 15.5078 11.9457 15.351C11.9657 15.2595 11.9955 14.8845 12.0125 14.5184L12.0448 13.8537L12.0515 14.4824C12.0615 15.3071 12.1171 15.0773 12.1363 14.1311C12.1467 13.6181 12.1515 13.5501 12.1585 13.8621C12.1639 14.0974 12.1851 14.2788 12.2053 14.2789C12.225 14.279 12.2391 14.2448 12.2394 14.2041C12.2396 14.1634 12.2582 14.1317 12.2786 14.1319C12.3016 14.132 12.316 14.3931 12.3186 14.8254L12.3224 15.5188L12.3478 14.7066L12.3731 13.8918L12.3842 14.668C12.389 14.9938 12.3964 15.1655 12.4019 15.1855C12.4046 15.1763 12.4076 15.1351 12.4104 15.0588C12.4183 14.8459 12.441 14.6615 12.4593 14.6503C12.4776 14.6391 12.5091 14.4233 12.5293 14.1695L12.5656 13.7066L12.5762 14.1154L12.5868 14.5217L12.6103 14.0225L12.6364 13.5234L12.6497 13.9115L12.6631 14.2996L12.6865 13.8186L12.7099 13.3375L12.715 13.811C12.7179 14.0957 12.7365 14.2819 12.7589 14.2821C12.7792 14.2822 12.7978 14.1951 12.8014 14.0883L12.8076 13.8943L12.8348 14.1169C12.8493 14.2391 12.8657 14.4638 12.8708 14.6164L12.8796 14.8933L12.9046 14.5778L12.9297 14.2649L12.9383 14.578L12.9494 14.8937L12.9982 14.5059C13.0397 14.1632 13.0455 14.1403 13.0536 14.3199C13.0654 14.5809 13.0845 14.481 13.1255 13.9504C13.1523 13.6037 13.1585 13.7759 13.1616 14.8768C13.1645 15.8564 13.1745 16.1163 13.1951 15.8212C13.2106 15.5975 13.2283 15.3387 13.2346 15.2471C13.2384 15.1918 13.2421 15.1591 13.2455 15.1515C13.2507 15.159 13.2584 15.2185 13.2703 15.3405C13.2841 15.483 13.3019 15.7817 13.3079 16.0056C13.3086 16.0335 13.3091 16.0515 13.3101 16.0599C13.3182 16.0202 13.3325 15.637 13.3443 15.0615L13.3727 13.7113L13.3784 14.9712L13.3842 16.2286L13.4399 15.5253C13.5032 14.6919 13.526 14.5091 13.5725 14.5093C13.5916 14.5094 13.6102 14.4223 13.615 14.3155C13.6197 14.2088 13.6338 14.3462 13.6443 14.621L13.6621 15.1204L13.6785 14.5099C13.6909 14.0689 13.7025 13.9569 13.7196 14.104L13.7444 14.3059L13.7584 14.1042L13.7725 13.8999L13.7895 14.1044L13.809 14.3063L13.8338 14.0477C13.8423 13.9567 13.8485 13.9016 13.8528 13.89C13.8582 13.9033 13.8629 14.0103 13.8689 14.2342C13.8809 14.6778 13.8816 14.6771 13.9064 14.0119C13.9293 13.3999 13.9307 13.4481 13.9393 14.6045L13.9502 15.8619L13.9758 14.5479L14.004 13.2364L14.0048 14.4523C14.0057 15.1221 14.0147 15.6645 14.0238 15.6554C14.0664 15.6133 14.1315 15.0659 14.1597 14.5127L14.1916 13.9024L14.2011 14.513L14.2105 15.1236L14.2378 14.4201L14.2625 13.7165L14.271 14.4953L14.2795 15.2714L14.3242 14.6974C14.3595 14.2243 14.3707 14.1598 14.3884 14.3278L14.4079 14.5323L14.4246 14.328C14.4328 14.2161 14.4461 14.3827 14.4561 14.6981C14.4739 15.2602 14.4762 15.2529 14.4971 14.3103L14.5181 13.348L14.5344 14.1268C14.5434 14.5541 14.5578 14.7709 14.5653 14.6082C14.5842 14.1926 14.6361 14.0446 14.6389 14.4016C14.6421 14.8259 14.7105 14.6764 14.7463 14.1642L14.7773 13.7194L14.7963 14.0171L14.8153 14.3121L14.8272 14.0353C14.8338 13.8828 14.8508 13.7164 14.8655 13.6656C14.8914 13.5765 14.8931 13.5789 14.9171 13.6995C14.9307 13.7683 14.9452 13.9348 14.9486 14.0697C14.9497 14.1124 14.9536 14.1331 14.956 14.137C14.9617 14.1204 14.9716 14.014 14.981 13.8318L15.0044 13.3508L15.0166 13.9433L15.0287 14.5358L15.0522 14.0366C15.0756 13.5632 15.0773 13.5549 15.0895 13.8532L15.1032 14.1663L15.1285 13.8146C15.1483 13.5346 15.1549 13.6326 15.162 14.2959C15.1681 14.8708 15.1774 15.0492 15.1949 14.8704C15.2125 14.6913 15.225 14.8608 15.2306 15.4243L15.2363 16.2392L15.2717 15.0261C15.2898 14.3591 15.315 13.8025 15.3279 13.7898C15.3407 13.7771 15.3527 14.1067 15.3547 14.5221L15.3582 15.2775L15.3802 14.5921L15.4048 13.9093L15.43 14.4785C15.4435 14.7921 15.4563 15.1912 15.4586 15.3661C15.4613 15.5734 15.4792 15.415 15.5103 14.9085C15.5426 14.3847 15.561 14.2223 15.5675 14.4095C15.579 14.7407 15.5946 14.6778 15.6389 14.1331L15.6723 13.7245L15.681 14.0221C15.6857 14.1849 15.6988 14.2749 15.7108 14.2241C15.7271 14.1555 15.7406 14.1844 15.7568 14.3356C15.7754 14.5087 15.7802 14.4824 15.7914 14.1521C15.7987 13.9385 15.8105 13.8011 15.819 13.847C15.8276 13.8928 15.8514 13.9299 15.8703 13.93C15.8892 13.9302 15.9061 13.9857 15.9084 14.0519L15.9129 14.1709L15.9369 14.0417C15.951 13.9705 15.9757 14.3396 15.9892 14.862C16.0258 16.2831 16.0659 16.2354 16.0881 14.7462L16.1085 13.4321L16.1232 14.4877L16.1379 15.5407L16.1589 14.5785L16.1799 13.6188L16.1959 14.4493C16.2062 15.0269 16.2192 15.2386 16.2411 15.1377C16.2795 14.9609 16.341 14.2513 16.3547 13.8216L16.3642 13.5086L16.3852 13.9149C16.4 14.2166 16.4095 14.2702 16.4202 14.1194C16.4329 13.9413 16.4364 13.9592 16.4582 14.2671C16.4719 14.4605 16.4838 14.8226 16.4847 15.0718C16.4856 15.3465 16.5011 15.5247 16.5235 15.5248C16.5465 15.5249 16.5664 15.264 16.574 14.8318L16.5857 14.1385L16.6014 15.0078C16.6125 15.6225 16.6217 15.7587 16.6324 15.4711C16.6408 15.2473 16.6611 14.7639 16.6773 14.3977L16.707 13.7304L16.7166 14.3229L16.7287 14.9154L16.7522 14.4162C16.7689 14.0789 16.7816 13.9896 16.79 14.1396L16.8017 14.3622L16.8288 14.1399C16.8392 14.0507 16.8461 13.9991 16.8504 13.9899C16.8547 14.004 16.8576 14.0865 16.8618 14.2513C16.8748 14.762 16.9184 15.3258 16.9269 15.0924C16.933 14.9249 16.9444 14.8985 17.0082 14.8988C17.075 14.8992 17.0833 14.8754 17.0846 14.6458C17.0854 14.5059 17.097 14.3342 17.1127 14.2656C17.1399 14.1465 17.1418 14.149 17.1614 14.3435C17.165 14.3796 17.1708 14.4015 17.174 14.4082C17.1817 14.3961 17.1905 14.2811 17.1967 14.0488C17.2094 13.569 17.2593 13.5101 17.267 13.9664C17.2714 14.2279 17.3368 14.2149 17.3551 13.9488C17.3631 13.8318 17.3754 14.1437 17.3796 14.6422C17.3841 15.1813 17.396 15.4742 17.4117 15.3642C17.4272 15.2558 17.4385 15.5109 17.4392 15.9827L17.4424 16.7873L17.5148 16.7877C17.4908 16.7875 17.4836 16.3426 17.491 15.5199C17.4972 14.8231 17.5154 14.0965 17.5312 13.9033C17.5346 13.8618 17.5365 13.8429 17.5393 13.849C17.5513 13.8754 17.5567 14.3425 17.5551 15.1711C17.5529 16.2294 17.539 16.7878 17.5148 16.7877L17.5898 16.7882L17.6033 15.7793C17.6151 14.8968 17.6183 14.8408 17.6344 15.3267L17.6519 15.883L17.6709 15.2726C17.6871 14.7266 17.6922 14.6939 17.7114 14.9753L17.7329 15.291L17.7476 14.9755L17.7623 14.6626L17.7842 14.9033L17.8087 15.144L17.8201 14.9578C17.8269 14.8561 17.8443 14.5814 17.8598 14.3475L17.8881 13.9234L17.899 14.2753C17.904 14.4686 17.9179 14.7435 17.9318 14.886L17.9562 15.1448L17.9686 14.775C17.9751 14.5715 17.9928 14.2545 18.0088 14.0715L18.0392 13.738L18.0427 14.0252C18.0451 14.1877 18.0641 14.3124 18.0851 14.3126C18.1084 14.3127 18.1198 14.5678 18.1173 15.0035C18.1152 15.3833 18.1267 15.681 18.142 15.6659C18.1574 15.6508 18.1794 15.295 18.1931 14.8746L18.2182 14.109L18.2218 14.823C18.2238 15.2683 18.2386 15.5345 18.2618 15.5347C18.2851 15.5348 18.305 15.2368 18.3129 14.7304L18.3252 13.9259L18.342 14.6089C18.3522 15.0156 18.3663 15.1898 18.3758 15.036L18.3902 14.7774L18.412 15.0362C18.4297 15.2396 18.4389 15.1566 18.4531 14.6484L18.4723 14.0017L18.4897 14.5736L18.5071 15.148L18.5272 14.3513C18.5421 13.732 18.552 13.6279 18.5687 13.8729C18.5805 14.0459 18.5951 14.128 18.6013 14.0568C18.6119 13.9354 18.613 13.9339 18.6403 14.0208C18.6563 14.0718 18.6714 14.4366 18.6745 14.8333C18.6797 15.4922 18.6825 15.5231 18.7087 15.1854C18.7245 14.982 18.7444 14.665 18.7515 14.4819L18.7637 14.1509L18.7854 14.4278L18.8097 14.7048L18.8244 14.3918L18.8392 14.0763L18.8607 14.392L18.8822 14.7052L18.8978 14.2241L18.9161 13.743L18.937 14.1519L18.9554 14.5581L18.9654 14.1598C18.9733 13.8342 18.9843 13.7641 19.0298 13.7643C19.0721 13.7646 19.0878 13.8146 19.0906 13.9768C19.0943 14.1851 19.093 14.1821 19.1247 13.8968C19.1426 13.7366 19.1667 13.598 19.1756 13.5892C19.1845 13.5804 19.2003 13.7548 19.2122 13.9749C19.243 14.5415 19.2541 14.6038 19.2624 14.2546C19.2666 14.0795 19.2869 13.9495 19.3081 13.9496C19.3284 13.9497 19.3437 14.0052 19.3436 14.0714C19.3435 14.1626 19.352 14.1782 19.3795 14.1362C19.4035 14.0996 19.4166 14.3663 19.4163 14.9307C19.4161 15.3986 19.4267 15.9325 19.4406 16.1156C19.4585 16.35 19.4724 16.0467 19.4878 15.0967L19.511 13.7464L19.5236 14.727L19.5387 15.7076L19.5634 14.5436L19.5856 13.3769L19.6012 14.267C19.6097 14.7553 19.6244 15.0461 19.6337 14.9139C19.648 14.7133 19.654 14.7479 19.6688 15.1185C19.686 15.5471 19.6877 15.5304 19.7283 14.6557L19.7697 13.7479L19.7877 14.2292C19.7977 14.5057 19.8119 14.6257 19.8197 14.5088C19.8325 14.3173 19.834 14.3119 19.8589 14.434C19.8835 14.5541 19.8866 14.5476 19.8956 14.3592C19.9033 14.1977 19.9119 14.1746 19.935 14.2481L19.963 14.3414L19.9712 14.2484L19.9795 14.1579L20.0075 14.2486C20.0306 14.3221 20.0392 14.3016 20.0469 14.1401C20.0559 13.9517 20.059 13.9452 20.0835 14.0653L20.1087 14.1948L20.1146 14.0681C20.1176 13.9986 20.1336 13.9546 20.1487 13.97C20.1639 13.9853 20.184 14.3836 20.1929 14.855L20.2087 15.7114L20.2315 14.4362L20.2542 13.1609L20.2651 14.4364C20.2769 15.6217 20.2809 15.6581 20.2984 14.954C20.308 14.5672 20.3138 14.3865 20.3198 14.3643C20.3241 14.3779 20.3293 14.4609 20.3366 14.6024C20.3635 15.1241 20.4422 15.3048 20.4464 14.8539C20.4506 14.4055 20.5238 14.4679 20.5313 14.9268C20.5348 15.1354 20.5493 14.8237 20.5637 14.2337L20.5905 13.1628L20.599 13.9389L20.6076 14.7151L20.6564 14.3092L20.7027 13.9033L20.7105 14.8089L20.7183 15.7144L20.7434 14.9384C20.7683 14.171 20.7687 14.1683 20.7812 14.6618L20.7939 15.1612L20.8196 14.7345C20.8314 14.5302 20.8382 14.4268 20.8421 14.4113C20.8451 14.4166 20.8463 14.4873 20.8487 14.6157C20.8569 15.0589 20.9262 15.0002 20.9371 14.5412C20.9438 14.2565 20.9507 14.2125 20.9639 14.3654L20.9835 14.5699L21.0079 14.3656L21.0323 14.164L21.0387 14.4046C21.0425 14.5369 21.0589 14.7114 21.0753 14.7929C21.0976 14.904 21.11 14.8073 21.1215 14.4051L21.1349 13.8671L21.1541 14.589L21.1707 15.3108L21.1869 14.7366C21.1958 14.4213 21.2095 14.202 21.2181 14.2478C21.2521 14.4299 21.3031 14.3163 21.3046 14.0543C21.3058 13.8324 21.3161 13.7776 21.3605 13.7778C21.4059 13.7781 21.4162 13.8484 21.4203 14.174L21.4258 14.5724L21.4488 14.1664L21.4718 13.7577L21.4985 14.0735C21.5126 14.2465 21.5264 14.6879 21.5291 15.0542C21.5329 15.5727 21.5396 15.4623 21.5604 14.5551L21.5877 13.3885L21.594 14.5553C21.5985 15.1962 21.6144 15.6112 21.6276 15.479C21.6532 15.2224 21.6808 15.239 21.7282 15.5365C21.7486 15.665 21.7653 15.3941 21.7824 14.6494C21.8087 13.5 21.8596 13.4165 21.8607 14.5205L21.8596 15.1673L21.9108 14.8157C21.9391 14.6226 21.9672 14.4483 21.9725 14.428C21.9785 14.4477 21.9917 14.593 22.0015 14.78L22.0226 15.1682L22.0409 14.669C22.0564 14.2071 22.058 14.19 22.0784 14.4467L22.1001 14.7237L22.1118 14.4832C22.1186 14.3509 22.1378 14.1344 22.1534 14.0022L22.1832 13.7618L22.1898 13.9662C22.2042 14.3262 22.256 14.3889 22.2669 14.0598C22.2839 13.5442 22.3294 13.9261 22.3385 14.6526L22.3477 15.3175L22.3716 14.7433L22.3982 14.1718L22.4087 15.0411C22.4168 15.7333 22.4215 15.8316 22.4396 15.5224C22.4522 15.3083 22.4731 15.1741 22.4853 15.2252C22.4974 15.2761 22.5145 15.0357 22.522 14.6899C22.5294 14.344 22.5463 13.8605 22.5617 13.6164C22.5853 13.242 22.5926 13.3401 22.5995 14.2453C22.6069 15.2216 22.6104 15.2664 22.6329 14.7448C22.6516 14.3102 22.6584 14.2397 22.6682 14.4501L22.6821 14.727L22.707 14.4503L22.7318 14.1736L22.7462 14.3755C22.7544 14.5027 22.7687 14.3928 22.7841 14.0808C22.8059 13.6382 22.8085 13.6948 22.8175 14.5803L22.8273 15.5789L22.8526 14.7667L22.878 13.9519L22.8894 15.1161L22.8983 16.2829L22.9272 14.8395C22.9408 14.1387 22.9492 13.8019 22.9541 13.7583C22.957 13.7953 22.959 13.9701 22.9615 14.2654C22.9694 15.1982 23.0178 15.6065 23.0405 14.9333L23.0531 14.5453L23.0716 14.9335C23.0864 15.2492 23.0964 15.2945 23.1194 15.1743C23.1348 15.0931 23.1491 14.9156 23.15 14.7813C23.1511 14.647 23.1619 14.4063 23.1764 14.2459C23.2024 13.9577 23.2045 13.9557 23.2497 14.0834C23.2749 14.1544 23.2961 14.2922 23.2971 14.3889C23.2984 14.5136 23.3136 14.5649 23.3505 14.5651C23.4201 14.5655 23.4827 14.3752 23.49 14.1442C23.4956 13.9663 23.4989 13.9627 23.5239 14.0849C23.5453 14.1894 23.551 14.1612 23.5584 13.9376C23.5634 13.7851 23.5829 13.5844 23.5997 13.4929C23.618 13.3934 23.6305 13.9219 23.6311 14.8073C23.6316 15.6927 23.6441 16.2186 23.6624 16.1191C23.6792 16.0277 23.6965 15.7873 23.7017 15.5838C23.7069 15.3804 23.7234 15.0977 23.7389 14.9554L23.7662 14.6968L23.7799 15.0099C23.7875 15.2071 23.8004 15.0366 23.8162 14.5497L23.8413 13.7711L23.8505 14.4205C23.8551 14.7766 23.8698 15.218 23.8838 15.4012L23.9078 15.7325L23.9208 15.2514C23.9327 14.7328 24.0155 14.2106 24.0469 14.4579C24.0564 14.5322 24.0686 14.4522 24.0765 14.2718C24.084 14.0989 24.0982 14.0117 24.106 14.0779C24.1147 14.1509 24.1404 14.1997 24.1726 14.1999C24.2139 14.2001 24.2271 14.1324 24.2338 13.895C24.2402 13.6687 24.2459 13.6398 24.2551 13.7838C24.262 13.8907 24.2839 13.978 24.3032 13.9781C24.3225 13.9782 24.3405 14.0338 24.3439 14.1C24.3473 14.1661 24.3623 14.079 24.376 13.9061C24.3935 13.6872 24.4043 13.8936 24.411 14.5893L24.4183 15.5879L24.4452 14.4963L24.4721 13.4046L24.481 14.5715C24.4887 15.5281 24.4963 15.6435 24.5161 15.2184L24.5397 14.7012L24.5549 15.2186C24.57 15.7193 24.5722 15.7106 24.5875 14.942C24.6084 13.8971 24.6593 13.5453 24.671 14.3682C24.676 14.721 24.6874 14.8776 24.6998 14.7564C24.7203 14.557 24.7207 14.5594 24.7406 14.8679L24.7621 15.1836L24.7748 14.7568C24.7839 14.4848 24.7978 14.3792 24.8127 14.4621L24.8353 14.5916L24.8673 14.4262C24.9534 13.9526 24.9578 13.9484 24.9686 14.3518C24.9776 14.6899 24.9821 14.6545 25.0038 14.0752L25.0283 13.4078L25.0387 14.2978C25.0475 15.056 25.0518 15.1217 25.0723 14.7585L25.0954 14.3344L25.1137 14.7588L25.1294 15.1857L25.1395 14.7692C25.1452 14.5404 25.1642 14.3529 25.1833 14.353C25.2023 14.3531 25.2239 14.4087 25.2317 14.4749C25.2396 14.541 25.2535 14.3694 25.2624 14.0947L25.2781 13.5955L25.2992 13.9837C25.3104 14.1974 25.3243 14.3349 25.3285 14.2891C25.3327 14.2434 25.3526 14.2065 25.3729 14.2066C25.3933 14.2067 25.4125 14.1117 25.4155 13.9947C25.4201 13.8197 25.4244 13.8 25.4472 13.8914C25.4708 13.9867 25.4782 13.9754 25.4865 13.8011L25.4954 13.5968L25.5382 13.8014C25.578 13.9843 25.5849 13.9918 25.6024 13.8923C25.6122 13.9209 25.6207 13.945 25.6304 13.9727L25.6398 12.3067C25.6298 12.413 25.6197 12.5162 25.6096 12.6273C25.609 12.6252 25.6076 12.6226 25.607 12.6169C25.5957 12.505 25.569 12.4123 25.5487 12.4122C25.5283 12.4121 25.5006 12.5044 25.488 12.6162L25.4662 12.8205L25.4544 12.6161L25.4452 12.4116L25.4182 12.6158L25.3912 12.8201L25.3871 12.626C25.3844 12.5192 25.3659 12.4319 25.3468 12.4318C25.3278 12.4317 25.3062 12.3761 25.2983 12.3099C25.2905 12.2437 25.2784 12.3731 25.2708 12.5969C25.2637 12.81 25.2574 12.9053 25.2509 12.9124C25.2462 12.9041 25.2402 12.8579 25.231 12.7803C25.2165 12.6582 25.2041 12.4467 25.2026 12.3093C25.2012 12.172 25.1843 12.0609 25.1652 12.0608C25.1462 12.0607 25.1246 12.0051 25.1168 11.9389C25.1064 11.8515 25.0974 11.8738 25.0878 12.0215L25.0763 12.2258L25.0516 12.0213C25.0348 11.8768 25.0222 12.0016 25.0104 12.4479C24.9957 13.0052 24.993 13.0378 24.9751 12.7427L24.9537 12.4088L24.9339 12.7062L24.9141 13.001L24.9034 12.6129C24.8985 12.3993 24.8821 12.1825 24.8673 12.1315C24.8443 12.0522 24.836 12.0685 24.802 12.2424C24.7671 12.4213 24.7609 12.3633 24.753 11.7609C24.7445 11.1066 24.7423 11.1233 24.7172 12.1488L24.6904 13.2223L24.6875 12.3711C24.6853 11.9032 24.6742 11.4591 24.6621 11.3827C24.6372 11.2267 24.5752 11.1935 24.5744 11.3356C24.574 11.3932 24.5541 11.4261 24.5195 11.4259C24.472 11.4256 24.4609 11.554 24.4498 12.3232C24.4426 12.8166 24.4341 13.0411 24.4288 12.8224C24.4234 12.5994 24.402 12.4264 24.3819 12.4263C24.3623 12.4262 24.3455 12.4658 24.3452 12.5166C24.3449 12.5675 24.3288 12.6097 24.3084 12.6096C24.2881 12.6094 24.269 12.5142 24.2657 12.3972C24.2619 12.2654 24.2488 12.3391 24.2335 12.591L24.2105 12.9971L24.1999 12.5908C24.1897 12.2205 24.1857 12.2025 24.1622 12.4044L24.135 12.6267L24.1264 12.3317L24.1151 12.0341L24.0881 12.2384C24.0678 12.3963 24.0592 12.3248 24.0511 11.9225L24.0411 11.4051L24.0181 11.8137L23.9925 12.2197L23.9824 11.7204C23.973 11.2798 23.9654 11.3519 23.922 12.3306L23.8717 13.4401L23.8705 12.2914C23.8694 11.6607 23.8554 11.0792 23.8391 10.9977L23.8089 10.8501L23.8001 11.0338C23.7947 11.1354 23.778 11.2701 23.7621 11.331C23.7362 11.4307 23.7299 11.4221 23.7212 11.2558L23.7119 11.0721L23.6872 11.3125C23.6636 11.5348 23.6618 11.5196 23.6521 11.126L23.6416 10.7017L23.6125 11.2552C23.5967 11.5603 23.5756 12.1177 23.5667 12.4941L23.5499 13.1796L23.532 12.6802C23.5177 12.2815 23.5093 12.2235 23.4922 12.4006L23.4728 12.6229L23.4667 12.3357C23.4638 12.178 23.446 12.051 23.4269 12.0509C23.4079 12.0508 23.3863 11.9952 23.3785 11.9291C23.3706 11.8629 23.358 11.9844 23.3511 12.198C23.3442 12.4116 23.3253 12.6361 23.3094 12.697L23.2803 12.8081L23.2759 12.6735C23.2739 12.6001 23.2614 12.4599 23.2467 12.3604L23.2192 12.1791L23.1973 12.3989C23.1804 12.563 23.1729 12.4994 23.1703 12.1504C23.1681 11.8647 23.1514 11.6794 23.129 11.6793C23.1086 11.6792 23.0926 11.7108 23.0923 11.7515C23.0921 11.7922 23.076 11.8264 23.0557 11.8263C23.0329 11.8262 23.013 12.0499 23.0058 12.4081C22.9962 12.8899 22.9918 12.8231 22.9795 12.0277L22.9643 11.0678L22.9437 11.955L22.9231 12.8423L22.9071 12.0273L22.891 11.2149L22.872 11.8253C22.8554 12.3728 22.8508 12.4022 22.8315 12.12C22.814 11.8619 22.8071 11.9312 22.7931 12.5078L22.7762 13.2114L22.7486 12.6007C22.7332 12.2649 22.7082 11.6993 22.6937 11.3431L22.6663 10.6961L22.6484 11.5653L22.6306 12.4344L22.6142 11.6686C22.605 11.248 22.5848 10.892 22.5696 10.8767C22.5544 10.8613 22.5361 11.196 22.5291 11.6215L22.517 12.395L22.5011 11.5438C22.4925 11.0758 22.4814 10.8047 22.4761 10.9409C22.4708 11.077 22.451 11.1998 22.4306 11.2122C22.4093 11.2252 22.3906 11.4159 22.3892 11.6595C22.3864 12.1502 22.3108 12.6905 22.2706 12.5048L22.2479 12.3935L22.2422 12.4969C22.2391 12.5607 22.2169 12.5977 22.1821 12.5975C22.1437 12.5973 22.1238 12.6408 22.1192 12.7368C22.1126 12.8752 22.1044 12.8025 22.0374 12.1077C22.0222 11.9499 21.9943 11.8203 21.977 11.8202C21.9596 11.8201 21.9424 11.783 21.9386 11.7372C21.9349 11.6914 21.922 11.8287 21.9084 12.0423C21.8862 12.3917 21.8821 12.3626 21.879 11.755C21.8769 11.3344 21.8619 11.0796 21.8389 11.0795C21.8186 11.0794 21.8001 11.1322 21.7994 11.1983C21.7985 11.2895 21.7898 11.305 21.7628 11.2628C21.7352 11.2195 21.7266 11.2332 21.7211 11.3194C21.7163 11.395 21.7071 11.3702 21.6905 11.2442L21.6657 11.0604L21.6519 11.2078C21.6414 11.3253 21.6342 11.3021 21.6163 11.0964C21.602 10.9309 21.5882 11.1919 21.576 11.8179C21.5638 12.4479 21.5485 12.6848 21.536 12.4825L21.5171 12.1694L21.4873 12.4098C21.4713 12.542 21.4531 12.7242 21.4462 12.8158C21.4392 12.9073 21.4291 12.7989 21.4243 12.575C21.4155 12.1734 21.4159 12.1711 21.3788 12.3807C21.3581 12.4976 21.3285 12.5926 21.3129 12.5925C21.2973 12.5924 21.272 12.4126 21.2557 12.1938C21.2297 11.8448 21.2233 11.8211 21.2076 11.9995L21.1884 12.2037L21.1662 11.9992C21.1471 11.8273 21.1407 11.8597 21.1289 12.2034C21.1216 12.4148 21.1147 12.5112 21.1089 12.5215C21.1044 12.509 21.0984 12.456 21.0891 12.3688C21.075 12.2364 21.0588 12.0196 21.0531 11.8874C21.0455 11.7149 21.0357 11.783 21.0181 12.1277L20.9946 12.6088L20.9891 12.2104C20.986 11.9749 20.9693 11.8144 20.9474 11.8143C20.9271 11.8142 20.9093 11.719 20.9072 11.602C20.9036 11.3939 20.9023 11.3939 20.8706 11.6794C20.8247 12.0923 20.8039 12.1035 20.7953 11.7203L20.7895 11.3866L20.7648 11.627C20.7465 11.8118 20.7358 11.8415 20.7201 11.7561C20.7089 11.695 20.6947 11.8217 20.6875 12.0353C20.675 12.4036 20.6727 12.4113 20.6477 12.2007C20.6333 12.0785 20.6155 11.7693 20.6103 11.5149C20.6019 11.1065 20.5997 11.1444 20.5774 11.8303L20.5523 12.6063L20.5403 11.9957L20.5282 11.3851L20.5022 11.8661L20.4788 12.3472L20.4675 11.5891L20.4563 10.8311L20.4322 11.4415L20.4054 12.0518L20.3964 11.3662C20.3877 10.7534 20.3834 10.7146 20.3571 10.9961C20.3409 11.1689 20.321 11.6946 20.3117 12.1626L20.2939 13.011L20.2798 11.8468L20.2683 10.6826L20.252 11.7277C20.2441 12.3024 20.225 12.7727 20.2073 12.7726C20.1704 12.7724 20.1323 12.5699 20.1245 12.3272C20.1201 12.1906 20.1168 12.1819 20.104 12.2805C20.0915 12.377 20.0711 12.4019 20.0025 12.4015C19.9282 12.4011 19.9139 12.3734 19.8872 12.2042C19.8576 12.017 19.8543 12.0265 19.8317 12.4005L19.8088 12.7884L19.7987 12.2891C19.7937 12.0144 19.7809 11.5387 19.7685 11.2334L19.7458 10.6797L19.7286 11.4376C19.7144 12.0836 19.7092 12.1477 19.6873 11.8797C19.6731 11.7067 19.6565 11.3657 19.6528 11.1215L19.6475 10.6791L19.6173 10.992C19.6011 11.1648 19.5817 11.5399 19.5737 11.8247L19.5604 12.342L19.5408 11.6952C19.5238 11.0621 19.5248 11.0704 19.5048 12.1192L19.4832 13.1927L19.4637 12.52C19.4535 12.1498 19.4358 11.8335 19.4212 11.8187C19.4065 11.8039 19.3896 12.0586 19.3843 12.3824L19.3732 12.9696L19.3551 12.5194C19.3329 12.0123 19.2812 11.8621 19.2788 12.2965C19.2769 12.6264 19.2073 12.6909 19.2007 12.3685C19.1965 12.16 19.1901 12.1763 19.1453 12.5699C19.1014 12.9547 19.0536 12.7601 19.0568 12.2047C19.0586 11.8961 19.0532 11.6526 19.0418 11.6639C19.0304 11.6752 19.0044 11.9728 18.9863 12.3259L18.9542 12.9673L18.9472 12.3748C18.9433 12.0492 18.9298 11.843 18.9162 11.9141L18.8896 12.0433L18.8647 11.8621C18.8507 11.7625 18.8377 11.6118 18.8356 11.5282L18.8313 11.3755L18.8019 11.5435C18.7851 11.635 18.7677 11.9045 18.7648 12.1435C18.7617 12.4068 18.746 12.578 18.7235 12.5779C18.7032 12.5778 18.6841 12.4825 18.6808 12.3655C18.677 12.2337 18.6639 12.3074 18.6486 12.5594L18.6256 12.9654L18.6161 12.3729C18.611 12.031 18.5973 11.8375 18.5825 11.9122C18.5629 12.0111 18.5472 11.9398 18.5195 11.6144L18.4831 11.1899L18.4684 11.5028L18.4537 11.8184L18.4326 11.4302L18.4141 11.042L18.3963 11.4481L18.381 11.8541L18.3597 11.5203C18.3558 11.4592 18.3506 11.4233 18.3474 11.4116C18.3393 11.4285 18.3299 11.6266 18.3231 12.0401C18.301 13.3846 18.2475 13.3575 18.2431 12.0008C18.24 11.0361 18.2346 10.9047 18.211 11.2815C18.195 11.5357 18.1654 11.9346 18.1464 12.1685C18.1138 12.5699 18.1127 12.5796 18.0936 12.3699L18.0715 12.1499L18.0651 12.362C18.0551 12.6506 17.9946 12.6306 17.9774 12.3331C17.9563 11.9701 17.8757 11.9291 17.869 12.2781C17.8593 12.7903 17.8069 12.3987 17.802 11.7784C17.7992 11.418 17.7861 11.2296 17.7685 11.2971C17.7481 11.3756 17.7359 11.3002 17.7286 11.0381C17.7204 10.7403 17.7133 10.8002 17.6932 11.351L17.6686 12.0364L17.6587 11.0558C17.6488 10.106 17.6487 10.0915 17.6248 10.6469L17.6008 11.2211L17.5965 10.626C17.594 10.2982 17.5796 9.95198 17.5672 9.85752L17.5449 9.68665L17.519 9.6865L17.5043 10.9153L17.4869 12.1466L17.4747 11.1092L17.4599 10.0743L17.4268 10.8864C17.3767 12.117 17.3459 12.5701 17.3112 12.5699C17.2939 12.5698 17.2809 12.4455 17.2817 12.2929C17.2842 11.8623 17.2114 11.9528 17.201 12.3934C17.196 12.6025 17.1861 12.6867 17.1792 12.5795C17.1723 12.4727 17.1504 12.3853 17.1311 12.3852C17.1119 12.3851 17.0956 12.2952 17.0935 12.1884C17.0913 12.0815 17.0825 12.0339 17.0734 12.0796C17.0431 12.2321 16.9867 12.1645 16.9809 11.9678L16.9742 11.7738L16.9602 11.9677C16.9521 12.0745 16.9308 12.1616 16.9125 12.1615C16.8943 12.1614 16.8739 12.0741 16.8671 11.9672C16.8571 11.8122 16.8521 11.8352 16.8405 12.086C16.8325 12.2589 16.8188 12.3461 16.811 12.2799C16.8031 12.2137 16.7831 12.1607 16.7651 12.1606C16.7471 12.1605 16.7265 12.0732 16.7196 11.9663C16.7115 11.8393 16.7018 11.9003 16.6928 12.1421C16.6583 13.0664 16.6235 13.0557 16.6153 12.121C16.6073 11.2163 16.6049 11.2008 16.5813 11.7327C16.5626 12.1516 16.554 12.2256 16.5434 12.03C16.5333 11.845 16.5229 11.9382 16.5053 12.361L16.4812 12.9532L16.4665 12.3607L16.4543 11.7708L16.4291 12.5649L16.4039 13.359L16.3966 12.3604C16.3923 11.8 16.378 11.4261 16.3626 11.5091C16.3424 11.6187 16.3307 11.5475 16.3228 11.232L16.3123 10.8077L16.2907 11.4181L16.2666 12.0285L16.2342 11.3428L16.1993 10.6596L16.1733 12.0461L16.1447 13.4326L16.1356 12.3046C16.1287 11.4828 16.1203 11.2911 16.1034 11.6007C16.0889 11.8678 16.0734 11.9794 16.0603 11.898C16.0463 11.8104 16.0342 11.8689 16.0257 12.0815C16.0158 12.3272 16.0091 12.3689 15.9884 12.2675C15.9694 12.175 15.958 12.2535 15.948 12.5441C15.9399 12.7806 15.9282 12.869 15.9209 12.7561C15.912 12.6175 15.893 12.5619 15.8548 12.5617C15.8225 12.5615 15.7991 12.5219 15.7959 12.4605C15.7929 12.4045 15.7786 12.4494 15.7642 12.5612L15.7372 12.7654L15.7304 12.5972C15.7264 12.5056 15.7098 12.3655 15.6934 12.284C15.6639 12.1374 15.6648 12.1381 15.6594 12.3485C15.6564 12.4654 15.6391 12.5605 15.622 12.5604C15.6048 12.5603 15.5822 12.2561 15.5715 11.8849C15.5597 11.4778 15.5361 11.2042 15.5133 11.1964C15.4925 11.1893 15.4748 11.1506 15.475 11.1082C15.4753 11.0659 15.4637 11.0422 15.4494 11.0563C15.4351 11.0705 15.4105 11.5028 15.3948 12.0158L15.3688 12.947L15.3618 11.9122C15.3565 10.7129 15.3157 10.1145 15.2925 10.9132C15.2827 11.249 15.272 11.3372 15.2572 11.208C15.2392 11.0512 15.231 11.0907 15.2014 11.4663C15.1821 11.7104 15.1515 12.1938 15.1358 12.5396C15.1221 12.84 15.1145 12.9834 15.1099 12.9974C15.1073 12.9802 15.1049 12.9007 15.1034 12.7697C15.0997 12.4439 15.089 12.3738 15.0436 12.3735C15.0019 12.3733 14.9871 12.4212 14.983 12.5672C14.9783 12.7332 14.9725 12.7448 14.9489 12.6498L14.9211 12.5384L14.9127 12.6496L14.9043 12.7608L14.8765 12.6494C14.8525 12.553 14.8476 12.566 14.8371 12.7423C14.8269 12.9141 14.8205 12.889 14.7992 12.592C14.7585 12.0258 14.7051 11.5827 14.6659 11.4633C14.637 11.3754 14.6276 11.4495 14.6199 11.8149C14.6146 12.0692 14.5978 12.4259 14.5818 12.6089C14.5553 12.9114 14.5533 12.8829 14.5475 12.2776C14.5399 11.493 14.4882 11.5657 14.4692 12.3884L14.4557 12.9419L14.4294 12.5589C14.4145 12.3481 14.3948 12.1674 14.3852 12.1576C14.3755 12.1479 14.3564 12.254 14.3424 12.3928C14.2985 12.8296 14.291 12.7794 14.2832 11.888L14.2778 11.0187L14.2522 11.8878C14.2381 12.3659 14.2218 12.5825 14.2184 12.3688C14.2014 11.2962 14.147 10.7732 14.0981 11.2376C14.0892 11.3217 14.0782 11.2634 14.0756 11.1004C14.073 10.9381 14.0568 10.8131 14.0358 10.813C14.0121 10.8129 13.9919 11.2457 13.9824 12.0234C13.9699 13.0427 13.9654 13.1345 13.9506 12.6053C13.9372 12.1284 13.9291 12.0497 13.9163 12.274L13.8991 12.5688L13.8807 12.1625L13.8597 11.7563L13.8419 12.1623L13.8266 12.5684L13.805 12.2734L13.7835 11.9757L13.7683 12.3663L13.7506 12.7542L13.7295 12.3661L13.711 11.9753L13.6938 12.2727L13.6766 12.5675L13.6653 12.2803C13.6569 12.0595 13.6438 11.9956 13.6023 11.9954C13.5622 11.9952 13.5482 11.9462 13.549 11.8088C13.5496 11.7071 13.5342 11.6251 13.5138 11.6249C13.491 11.6248 13.472 11.8409 13.4667 12.1886C13.4544 12.9883 13.4088 12.5437 13.4005 11.5493C13.3962 11.0374 13.3851 10.8807 13.3696 11.0679C13.3614 11.1667 13.3553 11.228 13.3505 11.2385C13.3435 11.2291 13.3372 11.1039 13.3244 10.827C13.3111 10.5421 13.2859 10.209 13.2691 10.0868C13.2409 9.8826 13.2374 9.90319 13.2236 10.3453C13.2096 10.7975 13.2071 10.8098 13.1889 10.5314C13.1727 10.2818 13.1642 10.3448 13.1375 10.9372C13.1201 11.3237 13.1028 11.8151 13.0976 12.0288L13.0877 12.4168L13.0663 12.0829L13.0449 11.7516L13.0325 12.1215C13.0053 12.8882 12.9622 12.9716 12.9566 12.2686C12.9534 11.8695 12.9391 11.6387 12.9211 11.694L12.8895 11.787L12.8874 11.6964C12.8857 11.6472 12.8732 11.6179 12.8593 11.6316C12.8455 11.6453 12.8119 11.9454 12.7857 12.296L12.7381 12.9322L12.7279 12.4509L12.7203 11.9697L12.6948 12.3602L12.6693 12.7481L12.656 12.36C12.6433 11.9755 12.6431 11.976 12.6186 12.5616L12.5946 13.1538L12.5901 12.5717C12.5876 12.2426 12.5715 11.9896 12.5521 11.9894C12.5331 11.9893 12.5099 12.0262 12.5024 12.0719C12.491 12.1414 12.43 11.4329 12.3932 10.8037C12.3878 10.8606 12.3785 11.1676 12.3732 11.5901C12.3663 12.1506 12.3468 12.5419 12.3264 12.5418C12.3075 12.5417 12.2855 12.5865 12.2767 12.6424C12.2679 12.6983 12.2554 12.5714 12.2499 12.3577L12.2392 11.967L12.2142 12.2644C12.1924 12.521 12.187 12.4782 12.1772 11.9486L12.1677 11.338L12.143 12.0415C12.1228 12.6109 12.1153 12.6717 12.1076 12.3569C12.1012 12.0957 12.0882 11.9971 12.0679 12.0592C12.0489 12.1176 12.0359 11.9687 12.0314 11.6528L12.0239 11.1535L11.9953 11.6345C11.9792 11.8989 11.9603 12.1314 11.9536 12.1517C11.9468 12.172 11.933 11.9209 11.9231 11.5953C11.9051 11.0039 11.9037 11.0043 11.8822 11.965L11.8612 12.9272L11.8455 12.0398L11.8299 11.1523L11.8131 11.8352C11.804 12.2116 11.7856 12.5708 11.7698 12.6318L11.7407 12.7428L11.7309 12.6315L11.7238 12.5203L11.6947 12.6313L11.6656 12.7424L11.6559 12.6311C11.6492 12.5547 11.6371 12.5842 11.6192 12.724C11.5932 12.9268 11.593 12.9244 11.5886 12.6385C11.5841 12.342 11.5284 12.2465 11.5015 12.4905C11.4931 12.5668 11.4808 12.4795 11.4741 12.2964C11.4637 12.0091 11.4578 12.0445 11.4365 12.5548L11.4124 13.1471L11.4039 12.371C11.399 11.9123 11.3827 11.6451 11.3662 11.7214C11.3464 11.8129 11.3363 11.7273 11.3291 11.4263L11.3185 11.002L11.2946 11.5735L11.2681 12.1477L11.2635 11.5837C11.2609 11.2596 11.2454 11.0196 11.2253 11.0195C11.2061 11.0194 11.1845 11.0986 11.1778 11.1952C11.1655 11.3701 11.1652 11.3682 11.106 11.0732L11.0456 10.7779L11.0389 11.0547C11.0325 11.2539 11.0199 11.3072 10.999 11.2407C10.982 11.1867 10.9664 11.4376 10.9619 11.8459C10.9577 12.2307 10.9419 12.5333 10.9271 12.5183C10.9123 12.5033 10.8917 12.2318 10.8814 11.9127L10.864 11.3305L10.847 12.0341C10.8344 12.5578 10.825 12.6719 10.8083 12.4788C10.7887 12.2529 10.7829 12.2404 10.7726 12.3855C10.7615 12.5417 10.7594 12.5439 10.7335 12.4396C10.7098 12.3441 10.7054 12.3578 10.6967 12.5325C10.6888 12.6932 10.6763 12.6398 10.6387 12.2761C10.6125 12.0228 10.5845 11.798 10.5769 11.7764C10.5766 11.7758 10.5746 11.7767 10.5743 11.7764C10.5649 11.7967 10.5466 11.9478 10.5308 12.1435C10.486 12.6976 10.4487 12.5088 10.4378 11.6618L10.4313 10.9969L10.4041 11.6797L10.3795 12.3651L10.3685 11.5683C10.3596 10.9329 10.3545 10.8484 10.3373 11.1438C10.3297 11.2748 10.3224 11.3525 10.3179 11.3688C10.3119 11.3517 10.3061 11.1993 10.2975 10.8668C10.2833 10.3185 10.2767 10.4243 10.2573 11.5677C10.2429 12.4179 10.23 12.768 10.2183 12.5117C10.2064 12.2501 10.1901 12.1515 10.1759 12.2346C10.1562 12.35 10.1534 12.3409 10.1427 12.1594C10.1334 12.0023 10.1245 12.0457 10.1054 12.3455L10.08 12.7334L10.0724 12.234C10.0677 11.9593 10.0523 11.5179 10.0392 11.2533L10.0161 10.772L9.99916 11.473L9.98481 12.1766L9.95423 11.6409C9.93848 11.3458 9.91311 10.9466 9.89719 10.7532C9.87112 10.4365 9.8667 10.4859 9.85038 11.2522L9.83261 12.1033L9.81508 11.5469L9.79495 10.9932L9.77449 11.8623L9.75402 12.7314L9.73917 12.157L9.72175 11.5826L9.6887 11.9343C9.67111 12.1275 9.64615 12.3863 9.63112 12.5083L9.60399 12.7306L9.57638 12.5804C9.56214 12.4989 9.55196 12.364 9.55223 12.2776C9.55248 12.1911 9.53468 12.1197 9.51433 12.1196C9.49245 12.1194 9.47406 12.2799 9.4681 12.5151C9.45889 12.8783 9.45719 12.8617 9.44075 12.3209C9.42555 11.8207 9.4181 11.7783 9.40352 12.0439C9.39748 12.1539 9.3932 12.2202 9.3895 12.2353C9.38447 12.2169 9.37765 12.0931 9.36847 11.8393L9.35072 11.3218L9.33442 11.9141C9.30972 12.8634 9.26871 12.8036 9.24461 11.7843C9.20354 10.0467 9.17336 9.9242 9.14852 11.3957L9.12542 12.7279L9.10967 11.8586L9.09392 10.9892L9.0715 11.7471C9.05285 12.3622 9.04971 12.2346 9.04947 11.0718L9.04728 9.63858L9.01624 9.6384L8.98653 10.3134C8.96997 10.6847 8.95144 10.9955 8.94379 11.0039C8.93614 11.0124 8.92762 10.8353 8.92532 10.6132L8.91986 10.2096L8.89146 10.6544C8.87578 10.8985 8.84735 11.4638 8.8274 11.9114C8.80745 12.3589 8.78367 12.6758 8.77424 12.6147C8.76128 12.5307 8.75047 12.5579 8.73222 12.7257C8.70816 12.947 8.70871 12.9468 8.70425 12.6402C8.70162 12.4597 8.68494 12.3403 8.66449 12.3528C8.64534 12.3645 8.62358 12.3129 8.616 12.2361C8.60843 12.1594 8.59572 12.2787 8.58862 12.5024C8.57308 12.9919 8.52577 12.8755 8.51207 12.3157L8.50382 11.9457L8.47885 12.2431C8.46975 12.3503 8.46146 12.4158 8.45708 12.4318C8.45175 12.4208 8.44846 12.3064 8.44369 12.0567L8.43608 11.5754L8.40282 11.9659C8.35475 12.5268 8.33991 12.5745 8.32881 12.2423L8.32016 11.9447L8.29313 12.1489C8.27011 12.3283 8.26665 12.3079 8.25796 11.9651C8.24927 11.6223 8.24583 11.5992 8.2228 11.7786C8.20058 11.9517 8.19322 11.9637 8.18357 11.8534C8.17393 11.7431 8.16916 11.7525 8.14695 11.9256L8.1225 12.1299L8.11589 11.928C8.10845 11.623 8.07219 11.7259 8.03701 12.1527L8.00637 12.5354L7.9995 11.9248C7.9926 11.2696 7.94407 11.3168 7.92147 11.9994L7.90912 12.3511L7.88764 12.0354L7.86614 11.7222L7.8507 12.1645C7.83408 12.598 7.83179 12.6021 7.82155 12.286C7.81578 12.1079 7.79558 11.9624 7.77682 11.9623C7.75806 11.9622 7.73788 11.8142 7.73211 11.6361C7.73114 11.6061 7.72842 11.5889 7.72723 11.5843C7.7216 11.615 7.71425 11.8783 7.70778 12.275C7.69916 12.8039 7.67564 13.2689 7.65793 13.3095C7.63891 13.3531 7.62791 12.9442 7.63 12.3081C7.63194 11.7156 7.62328 11.1764 7.61093 11.1128C7.58495 10.9789 7.52668 10.9589 7.52056 11.0812C7.51657 11.1611 7.5149 11.1596 7.487 11.0707C7.46822 11.0109 7.45242 11.1419 7.44351 11.4404L7.43052 11.9034L7.41246 11.4402L7.39439 10.9796L7.35914 11.7193C7.33933 12.1261 7.31 12.5567 7.29418 12.6787L7.26445 12.9011L7.25515 12.7173C7.25033 12.6156 7.23581 12.4808 7.22063 12.4196C7.19681 12.3237 7.19085 12.337 7.18129 12.5125C7.17489 12.6299 7.16341 12.672 7.15485 12.6133C7.14492 12.5451 7.11769 12.5122 7.07264 12.5119C7.01957 12.5116 6.99815 12.467 6.97038 12.2992C6.94494 12.1455 6.93344 12.1191 6.92952 12.2058C6.92654 12.2719 6.90778 12.3273 6.88743 12.3272C6.86468 12.3271 6.85228 12.1403 6.85395 11.8458C6.85554 11.5666 6.83949 11.3598 6.81799 11.3463C6.79771 11.3336 6.78004 11.2449 6.77772 11.1495L6.77353 10.9761L6.73876 11.1777C6.71941 11.2895 6.68888 11.7068 6.67141 12.1035C6.65081 12.5711 6.63679 12.7195 6.63019 12.5276C6.62459 12.3647 6.6086 11.9815 6.59622 11.6762L6.5735 11.1225L6.55773 11.6217L6.53937 12.1209L6.52194 11.5465C6.51349 11.2798 6.50727 11.1411 6.50369 11.1169C6.50093 11.1289 6.49836 11.2149 6.49451 11.3652C6.48901 11.5808 6.46989 11.8899 6.4544 12.0505C6.43099 12.2933 6.42375 12.321 6.40432 12.2132C6.39146 12.142 6.37559 12.3586 6.36796 12.6942C6.35315 13.3453 6.34488 13.3473 6.3109 12.7198C6.28634 12.2662 6.22341 12.1828 6.22103 12.6003C6.21931 12.9026 6.1459 12.9936 6.14026 12.7007C6.13841 12.604 6.12496 12.4745 6.11086 12.4134C6.08844 12.3162 6.08307 12.3304 6.05849 12.5243C6.01104 12.8985 6.00721 12.9034 6.00377 12.5939C5.99882 12.1495 5.95919 11.7295 5.92333 11.7293C5.90597 11.7292 5.88753 11.8665 5.88278 12.0343L5.87587 12.3396L5.85439 12.0238C5.84487 11.8839 5.83701 11.8115 5.83241 11.796C5.82892 11.8008 5.82564 11.8389 5.8214 11.9124C5.812 12.0753 5.80268 12.0976 5.77938 12.0234C5.75849 11.9569 5.74593 12.0151 5.73683 12.2275L5.7248 12.5224L5.70384 12.1161C5.68491 11.7319 5.6845 11.7474 5.66853 12.4108L5.6516 13.1144L5.62487 12.3563C5.61087 11.9391 5.58665 11.4553 5.57148 11.2823C5.54767 11.0108 5.54287 11.088 5.52175 11.8382L5.49611 12.7073L5.49328 11.8407C5.49147 11.3642 5.47754 10.9842 5.46445 10.9971C5.45135 11.01 5.42743 11.3578 5.4109 11.7703C5.38144 12.5053 5.38228 12.5105 5.37315 12.0391C5.36574 11.6561 5.3567 11.6002 5.33592 11.7621C5.31507 11.9246 5.30909 11.8694 5.30128 11.4851L5.29109 11.0038L5.25969 11.5211C5.24194 11.8058 5.20372 12.231 5.17412 12.4648L5.11997 12.8888L5.10872 12.5938L5.10006 12.2962L5.07303 12.5005C5.0542 12.6472 5.04453 12.6735 5.03629 12.5934C5.02804 12.5133 5.01837 12.5396 4.99954 12.6863C4.97858 12.8497 4.9708 12.7931 4.96232 12.4067L4.95213 11.9255L4.92663 12.316L4.90115 12.7039L4.89106 12.2045C4.88121 11.7822 4.87467 11.7449 4.85621 11.9637C4.84187 12.1336 4.83048 11.9416 4.82057 11.4073L4.80449 10.5949L4.78631 11.5183C4.76909 12.3256 4.76264 12.3908 4.74198 12.0355C4.72896 11.8116 4.71354 11.4284 4.70801 11.1842L4.6976 10.7417L4.67343 11.3521L4.64927 11.9625L4.64239 11.352C4.63158 10.4796 4.56836 10.7365 4.52583 11.8325C4.50729 12.3105 4.48834 12.6091 4.48325 12.4971C4.47526 12.3211 4.46994 12.3079 4.44497 12.4038C4.42334 12.4868 4.41559 12.4417 4.4098 12.2199C4.40555 12.0571 4.39422 11.9619 4.38514 12.0076C4.37606 12.0533 4.35187 12.0902 4.33293 12.0901C4.314 12.09 4.29553 12.267 4.29188 12.4857C4.28395 12.9603 4.23257 12.8403 4.2255 12.3301C4.21629 11.6651 4.162 11.6648 4.14531 12.3296C4.13813 12.6154 4.13302 12.761 4.12977 12.7874C4.12733 12.7705 4.12428 12.6815 4.12093 12.5235C4.11242 12.1237 4.10588 12.0888 4.04062 12.0884C3.98044 12.0881 3.96898 12.1198 3.95664 12.3001C3.9436 12.4905 3.94117 12.4817 3.93637 12.2249C3.93342 12.0673 3.91357 11.9402 3.89402 11.9401C3.87446 11.94 3.85507 11.792 3.84931 11.6139C3.84188 11.3845 3.83234 11.4685 3.81921 11.9009C3.80788 12.2743 3.79822 12.3996 3.79151 12.2241C3.77902 11.898 3.71837 11.8416 3.69632 12.133C3.68335 12.3043 3.68332 12.2957 3.6786 12.0631C3.67566 11.9181 3.65946 11.7436 3.64459 11.6748C3.62155 11.5683 3.61388 11.5908 3.59457 11.8272C3.58018 12.0033 3.57292 11.8294 3.57139 11.3536C3.56989 10.8833 3.55489 10.6059 3.53168 10.6057C3.50864 10.6056 3.49085 10.8602 3.48386 11.2807C3.47317 11.9246 3.47031 11.9347 3.45141 11.5289L3.43313 11.1045L3.41583 11.4174L3.4011 11.7329L3.37909 11.5103L3.35448 11.2877L3.34029 11.5101C3.33179 11.6321 3.31613 11.4233 3.30671 11.0468L3.2899 10.3638L3.27161 11.3053C3.24464 12.7235 3.19969 12.975 3.19148 11.7499C3.18738 11.1384 3.17579 10.8501 3.16196 11.0279L3.13699 11.3253L3.10801 10.9629C3.09167 10.7645 3.06331 10.6031 3.04539 10.603C3.02746 10.6029 3.00762 11.0652 3.00074 11.6297C2.99386 12.1943 2.98228 12.5748 2.97522 12.4781C2.96463 12.3334 2.95007 12.3047 2.89084 12.3043C2.82577 12.304 2.81774 12.2747 2.81498 11.9986L2.81154 11.6933L2.78161 11.9519C2.76398 12.0942 2.7317 12.2764 2.71204 12.3576L2.67758 12.5049L2.6685 12.2824L2.6594 12.0624L2.63487 12.2822C2.61138 12.484 2.60732 12.4686 2.59711 12.0983L2.58649 11.692L2.5609 12.0981C2.54931 12.2892 2.5425 12.3873 2.53847 12.4032C2.5354 12.3995 2.53152 12.3347 2.52919 12.2169C2.52469 11.9899 2.51263 11.9322 2.46872 11.932C2.42198 11.9317 2.4134 11.8353 2.41007 11.3289L2.40571 10.7286L2.38002 11.1528C2.35914 11.5129 2.35583 11.5425 2.34534 11.3388L2.33119 11.0982L2.30654 11.3386C2.28816 11.5113 2.27902 11.3803 2.27296 10.8753C2.26471 10.1874 2.26181 10.1971 2.22909 11.3123C2.2107 11.939 2.18885 12.4608 2.17852 12.471C2.16818 12.4812 2.14927 12.2921 2.13693 12.0517C2.12459 11.8112 2.11106 11.598 2.106 11.5781C2.10094 11.5582 2.05948 11.7165 2.01605 11.9294L1.93883 12.317L1.93265 12.0376C1.92913 11.885 1.9135 11.6523 1.89938 11.52C1.87854 11.3246 1.87092 11.394 1.85847 11.8897L1.84207 12.5001L1.81841 12.1119C1.80519 11.8982 1.79088 11.6233 1.78567 11.5012C1.77702 11.2989 1.77457 11.2913 1.75505 11.426C1.73788 11.5446 1.73066 11.5125 1.7146 11.2602C1.69531 10.957 1.69399 10.965 1.67992 11.4463C1.67019 11.7793 1.65411 11.9024 1.63643 11.816C1.62075 11.7393 1.60429 12.003 1.59394 12.4625L1.5766 13.2385L1.56074 12.3873C1.54715 11.6531 1.543 11.6023 1.52923 12.0172C1.51153 12.5501 1.49945 12.5389 1.46751 11.9522C1.4441 11.522 1.39371 11.4253 1.37026 11.7679C1.36225 11.8849 1.3508 11.4884 1.3468 10.8882C1.34075 9.97953 1.335 9.8718 1.31167 10.2413C1.29626 10.4853 1.27572 10.9926 1.26645 11.3689L1.24962 12.0544L1.23272 11.3869C1.22437 11.0657 1.21935 10.9031 1.21495 10.8719C1.21134 10.8883 1.20688 10.982 1.20047 11.1461L1.18252 11.5728L1.15939 11.0915C1.14631 10.8269 1.13471 10.3803 1.13398 10.1005L1.13169 9.59344L1.0903 9.59321L1.09034 9.59253Z" fill="white"/>
</mask>
<g mask="url(#mask0_402_6128)">
<path d="M25.5893 13.2814C25.5918 14.9195 25.27 16.5419 24.6427 18.0551C24.0153 19.5684 23.0947 20.9425 21.9339 22.0984C20.7731 23.2543 19.395 24.169 17.8791 24.79C16.3632 25.411 14.7394 25.7259 13.1012 25.7166C11.4631 25.7073 9.84294 25.3739 8.33418 24.7357C6.82543 24.0975 5.45786 23.1671 4.31028 21.9981C3.1627 20.8291 2.25779 19.4446 1.64767 17.9244C1.03755 16.4041 0.734293 14.7781 0.755362 13.1402C0.752926 11.5021 1.07466 9.87967 1.70203 8.36645C2.3294 6.85323 3.25001 5.4791 4.41081 4.32322C5.57162 3.16734 6.94967 2.25256 8.46559 1.63159C9.98151 1.01061 11.6053 0.695708 13.2435 0.705026C14.8816 0.714343 16.5018 1.0477 18.0105 1.68588C19.5193 2.32406 20.8868 3.25445 22.0344 4.42346C23.182 5.59247 24.0869 6.97699 24.697 8.49724C25.3072 10.0175 25.6104 11.6435 25.5893 13.2814Z" fill="#AFE9AF"/>
</g>
<path d="M16.6695 21.1631C17.3738 20.948 18.1429 20.655 18.4021 20.503C18.5763 20.4008 18.6009 20.3662 18.5412 20.3076C18.1085 19.8837 15.0626 17.1842 15.0355 17.2008C15.0157 17.2129 14.9647 17.4038 14.9221 17.625C14.838 18.0617 14.7606 18.1613 14.5064 18.1597C14.2971 18.1585 14.1597 18.0404 13.9611 17.6911C13.8745 17.5388 13.7343 17.3243 13.6495 17.2145C13.5648 17.1047 13.3938 16.8305 13.2696 16.6052C13.1454 16.3799 12.927 16.0087 12.7842 15.7802C12.4569 15.2564 12.0763 14.6179 11.9324 14.3516C11.8715 14.2388 11.7209 14.0087 11.5978 13.8404C11.4747 13.672 11.318 13.4228 11.2495 13.2865C11.181 13.1502 10.9844 12.8267 10.8124 12.5678C10.6405 12.3087 10.4341 11.9652 10.3538 11.8044C10.2735 11.6436 10.1257 11.3819 10.0255 11.223C9.79508 10.8576 9.52746 10.3149 9.48179 10.1205C9.45395 10.002 9.47831 9.94169 9.5997 9.82876C9.76337 9.67648 9.77407 9.67659 10.2911 9.83559C10.466 9.88936 10.6205 9.92208 10.6345 9.90828C10.6596 9.88346 9.50043 5.28255 9.45829 5.24001C9.42741 5.20877 8.03299 6.36644 8.03266 6.42364C8.03252 6.44956 7.91092 6.59026 7.76245 6.73633C7.61398 6.88239 7.40298 7.14221 7.29355 7.31369C7.12105 7.58402 7.08606 7.69758 7.03046 8.16775C6.85396 9.6599 7.23525 11.8694 7.97276 13.6279C8.36977 14.5746 8.60882 15.0494 8.89227 15.4542C9.02045 15.6372 9.19269 15.924 9.27503 16.0914C9.71745 16.991 11.1185 18.6343 12.0985 19.403C12.7746 19.9335 14.2105 20.8835 14.5429 21.0203C15.5148 21.4203 15.7715 21.4376 16.6696 21.1633L16.6695 21.1631ZM19.1636 19.4847C19.3777 18.9669 19.3838 18.9367 19.2915 18.8485C19.2134 18.7741 16.7527 16.6067 16.413 16.3133C16.3337 16.2447 16.2533 16.2694 15.7558 16.5155C15.2785 16.7517 15.201 16.8077 15.2651 16.8701C15.4993 17.0982 18.9092 20.0576 18.9227 20.0444C18.9316 20.0356 19.04 19.7838 19.1636 19.4847ZM11.62 9.51618C11.8551 9.33928 12.0467 9.19135 12.0459 9.18744C11.9841 8.89122 11.0798 5.26896 11.0636 5.25248C11.0321 5.22057 9.85249 5.0483 9.82835 5.0721C9.81329 5.08698 10.1302 6.3418 11.0008 9.71386C11.0625 9.95276 11.0233 9.96531 11.62 9.51618Z" fill="white"/>
</g>
<defs>
<clipPath id="clip0_402_6128">
<rect width="25" height="25" fill="white" transform="translate(0.743164 0.640137) rotate(0.325879)"/>
</clipPath>
</defs>
</svg>
