<svg width="25" height="17" viewBox="0 0 25 17" fill="none" xmlns="http://www.w3.org/2000/svg">
<path fill-rule="evenodd" clip-rule="evenodd" d="M9.03906 8.92275C9.03906 8.79014 9.09174 8.66297 9.18551 8.5692C9.27928 8.47543 9.40645 8.42275 9.53906 8.42275H21.3321L18.1851 5.27675C18.0912 5.18286 18.0384 5.05553 18.0384 4.92275C18.0384 4.78997 18.0912 4.66264 18.1851 4.56875C18.2789 4.47486 18.4063 4.42212 18.5391 4.42212C18.6718 4.42212 18.7992 4.47486 18.8931 4.56875L22.8931 8.56875C22.9396 8.6152 22.9766 8.67037 23.0018 8.73112C23.027 8.79186 23.04 8.85698 23.04 8.92275C23.04 8.98852 23.027 9.05364 23.0018 9.11438C22.9766 9.17513 22.9396 9.2303 22.8931 9.27675L18.8931 13.2768C18.7992 13.3706 18.6718 13.4234 18.5391 13.4234C18.4063 13.4234 18.2789 13.3706 18.1851 13.2768C18.0912 13.1829 18.0384 13.0555 18.0384 12.9228C18.0384 12.79 18.0912 12.6626 18.1851 12.5688L21.3321 9.42275H9.53906C9.40645 9.42275 9.27928 9.37007 9.18551 9.2763C9.09174 9.18254 9.03906 9.05536 9.03906 8.92275Z" fill="black"/>
</svg>
