<svg width="25" height="17" viewBox="0 0 25 17" fill="none" xmlns="http://www.w3.org/2000/svg">
<path fill-rule="evenodd" clip-rule="evenodd" d="M9.92969 8.92287C9.92969 8.79026 9.98237 8.66309 10.0761 8.56932C10.1699 8.47555 10.2971 8.42287 10.4297 8.42287H22.2227L19.0757 5.27687C18.9818 5.18299 18.9291 5.05565 18.9291 4.92287C18.9291 4.7901 18.9818 4.66276 19.0757 4.56887C19.1696 4.47499 19.2969 4.42224 19.4297 4.42224C19.5625 4.42224 19.6898 4.47499 19.7837 4.56887L23.7837 8.56887C23.8303 8.61532 23.8672 8.67049 23.8924 8.73124C23.9176 8.79198 23.9306 8.85711 23.9306 8.92287C23.9306 8.98864 23.9176 9.05376 23.8924 9.11451C23.8672 9.17525 23.8303 9.23043 23.7837 9.27687L19.7837 13.2769C19.6898 13.3708 19.5625 13.4235 19.4297 13.4235C19.2969 13.4235 19.1696 13.3708 19.0757 13.2769C18.9818 13.183 18.9291 13.0556 18.9291 12.9229C18.9291 12.7901 18.9818 12.6628 19.0757 12.5689L22.2227 9.42287H10.4297C10.2971 9.42287 10.1699 9.37019 10.0761 9.27643C9.98237 9.18266 9.92969 9.05548 9.92969 8.92287Z" fill="black"/>
</svg>
