<svg width="12" height="13" viewBox="0 0 12 13" fill="none" xmlns="http://www.w3.org/2000/svg">
<path d="M10 1.48877H5C4.4485 1.48877 4 1.93727 4 2.48877V4.48877H2C1.4485 4.48877 1 4.93727 1 5.48877V10.4888C1 11.0403 1.4485 11.4888 2 11.4888H7C7.5515 11.4888 8 11.0403 8 10.4888V8.48877H10C10.5515 8.48877 11 8.04027 11 7.48877V2.48877C11 1.93727 10.5515 1.48877 10 1.48877ZM2 10.4888V5.48877H7L7.001 10.4888H2ZM10 7.48877H8V5.48877C8 4.93727 7.5515 4.48877 7 4.48877H5V2.48877H10V7.48877Z" fill="#1A202C"/>
</svg>
