<svg width="17" height="17" viewBox="0 0 17 17" fill="none" xmlns="http://www.w3.org/2000/svg">
<path fill-rule="evenodd" clip-rule="evenodd" d="M1.92969 8.64882C1.92969 8.51622 1.98237 8.38904 2.07613 8.29527C2.1699 8.2015 2.29708 8.14882 2.42969 8.14882H14.2227L11.0757 5.00283C10.9818 4.90894 10.9291 4.7816 10.9291 4.64882C10.9291 4.51605 10.9818 4.38871 11.0757 4.29482C11.1696 4.20094 11.2969 4.14819 11.4297 4.14819C11.5625 4.14819 11.6898 4.20094 11.7837 4.29482L15.7837 8.29482C15.8303 8.34127 15.8672 8.39645 15.8924 8.45719C15.9176 8.51794 15.9306 8.58306 15.9306 8.64882C15.9306 8.71459 15.9176 8.77971 15.8924 8.84046C15.8672 8.9012 15.8303 8.95638 15.7837 9.00282L11.7837 13.0028C11.6898 13.0967 11.5625 13.1495 11.4297 13.1495C11.2969 13.1495 11.1696 13.0967 11.0757 13.0028C10.9818 12.9089 10.9291 12.7816 10.9291 12.6488C10.9291 12.516 10.9818 12.3887 11.0757 12.2948L14.2227 9.14882H2.42969C2.29708 9.14882 2.1699 9.09615 2.07613 9.00238C1.98237 8.90861 1.92969 8.78143 1.92969 8.64882Z" fill="black"/>
</svg>
