<svg width="17" height="17" viewBox="0 0 17 17" fill="none" xmlns="http://www.w3.org/2000/svg">
<path fill-rule="evenodd" clip-rule="evenodd" d="M1.73047 8.0707C1.73047 7.93809 1.78315 7.81091 1.87692 7.71715C1.97068 7.62338 2.09786 7.5707 2.23047 7.5707H14.0235L10.8765 4.4247C10.7826 4.33081 10.7298 4.20348 10.7298 4.0707C10.7298 3.93792 10.7826 3.81059 10.8765 3.7167C10.9704 3.62281 11.0977 3.57007 11.2305 3.57007C11.3632 3.57007 11.4906 3.62281 11.5845 3.7167L15.5845 7.7167C15.631 7.76315 15.668 7.81832 15.6932 7.87907C15.7184 7.93981 15.7314 8.00493 15.7314 8.0707C15.7314 8.13647 15.7184 8.20159 15.6932 8.26233C15.668 8.32308 15.631 8.37825 15.5845 8.4247L11.5845 12.4247C11.4906 12.5186 11.3632 12.5713 11.2305 12.5713C11.0977 12.5713 10.9704 12.5186 10.8765 12.4247C10.7826 12.3308 10.7298 12.2035 10.7298 12.0707C10.7298 11.9379 10.7826 11.8106 10.8765 11.7167L14.0235 8.5707H2.23047C2.09786 8.5707 1.97068 8.51802 1.87692 8.42425C1.78315 8.33049 1.73047 8.20331 1.73047 8.0707Z" fill="black"/>
</svg>
