<svg width="17" height="21" viewBox="0 0 17 21" fill="none" xmlns="http://www.w3.org/2000/svg">
<path fill-rule="evenodd" clip-rule="evenodd" d="M1.83984 10.0706C1.83984 9.90485 1.89252 9.74588 1.98629 9.62867C2.08006 9.51146 2.20724 9.44561 2.33984 9.44561H14.1328L10.9858 5.51311C10.892 5.39576 10.8392 5.23658 10.8392 5.07061C10.8392 4.90464 10.892 4.74547 10.9858 4.62811C11.0797 4.51076 11.2071 4.44482 11.3398 4.44482C11.4726 4.44482 11.6 4.51076 11.6938 4.62811L15.6938 9.62811C15.7404 9.68617 15.7773 9.75514 15.8026 9.83107C15.8278 9.907 15.8407 9.9884 15.8407 10.0706C15.8407 10.1528 15.8278 10.2342 15.8026 10.3102C15.7773 10.3861 15.7404 10.4551 15.6938 10.5131L11.6938 15.5131C11.6 15.6305 11.4726 15.6964 11.3398 15.6964C11.2071 15.6964 11.0797 15.6305 10.9858 15.5131C10.892 15.3958 10.8392 15.2366 10.8392 15.0706C10.8392 14.9046 10.892 14.7455 10.9858 14.6281L14.1328 10.6956H2.33984C2.20724 10.6956 2.08006 10.6298 1.98629 10.5126C1.89252 10.3953 1.83984 10.2364 1.83984 10.0706Z" fill="black"/>
</svg>
