<svg width="40" height="21" viewBox="0 0 40 21" fill="none" xmlns="http://www.w3.org/2000/svg">
<path fill-rule="evenodd" clip-rule="evenodd" d="M2.5 10.6489C2.5 10.4831 2.6317 10.3241 2.86612 10.2069C3.10054 10.0897 3.41848 10.0239 3.75 10.0239H33.2325L25.365 6.09136C25.1303 5.974 24.9984 5.81483 24.9984 5.64886C24.9984 5.48289 25.1303 5.32372 25.365 5.20636C25.5997 5.089 25.9181 5.02307 26.25 5.02307C26.5819 5.02307 26.9003 5.089 27.135 5.20636L37.135 10.2064C37.2514 10.2644 37.3438 10.3334 37.4068 10.4093C37.4698 10.4853 37.5022 10.5667 37.5022 10.6489C37.5022 10.7311 37.4698 10.8125 37.4068 10.8884C37.3438 10.9643 37.2514 11.0333 37.135 11.0914L27.135 16.0914C26.9003 16.2087 26.5819 16.2746 26.25 16.2746C25.9181 16.2746 25.5997 16.2087 25.365 16.0914C25.1303 15.974 24.9984 15.8148 24.9984 15.6489C24.9984 15.4829 25.1303 15.3237 25.365 15.2064L33.2325 11.2739H3.75C3.41848 11.2739 3.10054 11.208 2.86612 11.0908C2.6317 10.9736 2.5 10.8146 2.5 10.6489Z" fill="black"/>
</svg>
