<svg width="16" height="21" viewBox="0 0 16 21" fill="none" xmlns="http://www.w3.org/2000/svg">
<path fill-rule="evenodd" clip-rule="evenodd" d="M1 10.649C1 10.4832 1.05268 10.3243 1.14645 10.207C1.24021 10.0898 1.36739 10.024 1.5 10.024H13.293L10.146 6.09148C10.0521 5.97412 9.99937 5.81495 9.99937 5.64898C9.99937 5.48301 10.0521 5.32384 10.146 5.20648C10.2399 5.08912 10.3672 5.02319 10.5 5.02319C10.6328 5.02319 10.7601 5.08912 10.854 5.20648L14.854 10.2065C14.9006 10.2645 14.9375 10.3335 14.9627 10.4094C14.9879 10.4854 15.0009 10.5668 15.0009 10.649C15.0009 10.7312 14.9879 10.8126 14.9627 10.8885C14.9375 10.9645 14.9006 11.0334 14.854 11.0915L10.854 16.0915C10.7601 16.2088 10.6328 16.2748 10.5 16.2748C10.3672 16.2748 10.2399 16.2088 10.146 16.0915C10.0521 15.9741 9.99937 15.815 9.99937 15.649C9.99937 15.483 10.0521 15.3238 10.146 15.2065L13.293 11.274H1.5C1.36739 11.274 1.24021 11.2081 1.14645 11.0909C1.05268 10.9737 1 10.8147 1 10.649Z" fill="black"/>
</svg>
