<svg width="18" height="19" viewBox="0 0 18 19" fill="none" xmlns="http://www.w3.org/2000/svg">
<path d="M15.1914 3.37231C13.5547 1.73169 11.375 0.829346 9.05859 0.829346C4.27734 0.829346 0.386719 4.71997 0.386719 9.50122C0.386719 11.0286 0.785156 12.5208 1.54297 13.8372L0.3125 18.3293L4.91016 17.1223C6.17578 17.8137 7.60156 18.177 9.05469 18.177H9.05859C13.8359 18.177 17.8125 14.2864 17.8125 9.50513C17.8125 7.18872 16.8281 5.01294 15.1914 3.37231ZM9.05859 16.7161C7.76172 16.7161 6.49219 16.3684 5.38672 15.7122L5.125 15.5559L2.39844 16.2708L3.125 13.6106L2.95312 13.3372C2.23047 12.1887 1.85156 10.8645 1.85156 9.50122C1.85156 5.52856 5.08594 2.29419 9.0625 2.29419C10.9883 2.29419 12.7969 3.04419 14.1562 4.40747C15.5156 5.77075 16.3516 7.57935 16.3477 9.50513C16.3477 13.4817 13.0312 16.7161 9.05859 16.7161ZM13.0117 11.3176C12.7969 11.2083 11.7305 10.6848 11.5312 10.6145C11.332 10.5403 11.1875 10.5051 11.043 10.7239C10.8984 10.9426 10.4844 11.427 10.3555 11.5754C10.2305 11.72 10.1016 11.7395 9.88672 11.6301C8.61328 10.9934 7.77734 10.4934 6.9375 9.052C6.71484 8.66919 7.16016 8.69653 7.57422 7.86841C7.64453 7.72388 7.60937 7.59888 7.55469 7.4895C7.5 7.38013 7.06641 6.31372 6.88672 5.88013C6.71094 5.45825 6.53125 5.51685 6.39844 5.50903C6.27344 5.50122 6.12891 5.50122 5.98438 5.50122C5.83984 5.50122 5.60547 5.55591 5.40625 5.77075C5.20703 5.9895 4.64844 6.51294 4.64844 7.57935C4.64844 8.64575 5.42578 9.677 5.53125 9.82153C5.64062 9.96607 7.05859 12.1536 9.23438 13.095C10.6094 13.6887 11.1484 13.7395 11.8359 13.6379C12.2539 13.5754 13.1172 13.1145 13.2969 12.6067C13.4766 12.0989 13.4766 11.6653 13.4219 11.5754C13.3711 11.4778 13.2266 11.4231 13.0117 11.3176Z" fill="white" fill-opacity="0.92"/>
</svg>
