<svg width="12" height="13" viewBox="0 0 12 13" fill="none" xmlns="http://www.w3.org/2000/svg">
<path d="M0.227193 11.5552C0.0866792 11.6958 0.00776569 11.8864 0.00781254 12.0852C0.00785938 12.284 0.0868628 12.4746 0.227443 12.6151C0.368023 12.7556 0.558664 12.8345 0.757428 12.8345C0.956191 12.8344 1.1468 12.7554 1.28731 12.6148L5.91445 7.9882C5.92605 7.97657 5.93983 7.96734 5.95501 7.96105C5.97018 7.95475 5.98645 7.95151 6.00288 7.95151C6.0193 7.95151 6.03557 7.95475 6.05074 7.96105C6.06592 7.96734 6.0797 7.97657 6.0913 7.9882L10.7184 12.6158C10.788 12.6855 10.8706 12.7407 10.9615 12.7784C11.0525 12.816 11.1499 12.8355 11.2483 12.8355C11.3467 12.8355 11.4442 12.8161 11.5351 12.7785C11.6261 12.7409 11.7087 12.6857 11.7783 12.6161C11.8479 12.5465 11.9031 12.4639 11.9408 12.373C11.9785 12.2821 11.9979 12.1846 11.9979 12.0862C11.998 11.9878 11.9786 11.8903 11.941 11.7994C11.9033 11.7085 11.8481 11.6258 11.7786 11.5562L7.15192 6.92759C7.14029 6.91599 7.13106 6.9022 7.12476 6.88703C7.11847 6.87186 7.11522 6.85559 7.11522 6.83916C7.11522 6.82273 7.11847 6.80647 7.12476 6.79129C7.13106 6.77612 7.14029 6.76234 7.15192 6.75074L11.7796 2.12359C11.9201 1.98288 11.9989 1.79211 11.9988 1.59326C11.9987 1.3944 11.9195 1.20374 11.7788 1.06323C11.6381 0.922715 11.4473 0.843854 11.2485 0.843994C11.0496 0.844135 10.859 0.923265 10.7184 1.06398L6.0913 5.69012C6.0797 5.70175 6.06592 5.71098 6.05074 5.71728C6.03557 5.72357 6.0193 5.72681 6.00288 5.72681C5.98645 5.72681 5.97018 5.72357 5.95501 5.71728C5.93983 5.71098 5.92605 5.70175 5.91445 5.69012L1.28731 1.06398C1.21773 0.99437 1.13513 0.939147 1.04421 0.901463C0.953295 0.863779 0.855845 0.844371 0.757428 0.844348C0.558664 0.844301 0.368023 0.923214 0.227443 1.06373C0.0868628 1.20424 0.00785937 1.39485 0.00781252 1.59361C0.00776568 1.79237 0.0866792 1.98301 0.227193 2.12359L4.85383 6.75074C4.86547 6.76234 4.87469 6.77612 4.88099 6.79129C4.88729 6.80647 4.89053 6.82273 4.89053 6.83916C4.89053 6.85559 4.88729 6.87186 4.88099 6.88703C4.87469 6.9022 4.86547 6.91599 4.85383 6.92759L0.227193 11.5552Z" fill="white"/>
</svg>
