<svg width="14" height="11" viewBox="0 0 14 11" fill="none" xmlns="http://www.w3.org/2000/svg">
<path d="M0.308594 2.25903C0.308594 1.82806 0.479799 1.41473 0.784545 1.10998C1.08929 0.805238 1.50262 0.634033 1.93359 0.634033H11.6836C12.1146 0.634033 12.5279 0.805238 12.8326 1.10998C13.1374 1.41473 13.3086 1.82806 13.3086 2.25903V8.75903C13.3086 9.19001 13.1374 9.60333 12.8326 9.90808C12.5279 10.2128 12.1146 10.384 11.6836 10.384H1.93359C1.50262 10.384 1.08929 10.2128 0.784545 9.90808C0.479799 9.60333 0.308594 9.19001 0.308594 8.75903V2.25903ZM1.93359 1.44653C1.71811 1.44653 1.51144 1.53214 1.35907 1.68451C1.2067 1.83688 1.12109 2.04354 1.12109 2.25903V2.43535L6.80859 5.84785L12.4961 2.43535V2.25903C12.4961 2.04354 12.4105 1.83688 12.2581 1.68451C12.1057 1.53214 11.8991 1.44653 11.6836 1.44653H1.93359ZM12.4961 3.38272L8.67084 5.67803L12.4961 8.03185V3.38272ZM12.4685 8.96947L7.88597 6.14928L6.80859 6.79522L5.73122 6.14928L1.14872 8.96866C1.19489 9.14156 1.29685 9.29437 1.43877 9.40339C1.58069 9.5124 1.75464 9.57151 1.93359 9.57153H11.6836C11.8624 9.57156 12.0363 9.51256 12.1782 9.40371C12.3201 9.29485 12.4221 9.14222 12.4685 8.96947ZM1.12109 8.03185L4.94634 5.67803L1.12109 3.38272V8.03185Z" fill="white"/>
</svg>
