<svg width="21" height="17" viewBox="0 0 21 17" fill="none" xmlns="http://www.w3.org/2000/svg">
<path d="M18.8816 4.50572C18.8943 4.68338 18.8943 4.86107 18.8943 5.03873C18.8943 10.4575 14.77 16.7012 7.23191 16.7012C4.90957 16.7012 2.75223 16.0285 0.9375 14.8611C1.26746 14.8991 1.58469 14.9118 1.92734 14.9118C3.84355 14.9118 5.60754 14.2646 7.01617 13.1606C5.21414 13.1225 3.70398 11.9423 3.18367 10.3179C3.4375 10.356 3.69129 10.3813 3.95781 10.3813C4.32582 10.3813 4.69387 10.3306 5.03648 10.2418C3.15832 9.86103 1.74965 8.21131 1.74965 6.21893V6.16818C2.29531 6.47275 2.92988 6.66311 3.60242 6.68846C2.49836 5.9524 1.77504 4.69607 1.77504 3.27475C1.77504 2.51334 1.97805 1.81537 2.3334 1.20623C4.35117 3.69354 7.38418 5.31787 10.7852 5.49557C10.7217 5.191 10.6836 4.87377 10.6836 4.5565C10.6836 2.2976 12.5111 0.45752 14.7826 0.45752C15.9628 0.45752 17.0288 0.952441 17.7775 1.75193C18.7039 1.57428 19.5922 1.23162 20.3791 0.76209C20.0745 1.71389 19.4273 2.51338 18.577 3.02096C19.4019 2.93217 20.2014 2.70369 20.9374 2.38646C20.3791 3.19861 19.6811 3.92193 18.8816 4.50572Z" fill="white" fill-opacity="0.92"/>
</svg>
