<svg width="17" height="16" viewBox="0 0 17 16" fill="none" xmlns="http://www.w3.org/2000/svg">
<path d="M8.42969 0.398804C4.14844 0.398804 0.679688 3.86755 0.679688 8.1488C0.679688 12.4301 4.14844 15.8988 8.42969 15.8988C12.7109 15.8988 16.1797 12.4301 16.1797 8.1488C16.1797 3.86755 12.7109 0.398804 8.42969 0.398804ZM12.2359 5.70818L10.9641 11.7019C10.8703 12.1269 10.6172 12.2301 10.2641 12.0301L8.32656 10.6019L7.39219 11.5019C7.28906 11.6051 7.20156 11.6926 7.00156 11.6926L7.13906 9.72068L10.7297 6.47693C10.8859 6.33943 10.6953 6.2613 10.4891 6.3988L6.05156 9.19255L4.13906 8.59568C3.72344 8.46443 3.71406 8.18005 4.22656 7.98005L11.6984 5.0988C12.0453 4.9738 12.3484 5.18318 12.2359 5.70818Z" fill="#229ED9"/>
</svg>
