<svg width="14" height="14" viewBox="0 0 14 14" fill="none" xmlns="http://www.w3.org/2000/svg">
<path d="M5.95312 0.930298L6.64687 0.236548C6.94062 -0.0572021 7.41563 -0.0572021 7.70625 0.236548L13.7812 6.30842C14.075 6.60217 14.075 7.07717 13.7812 7.3678L7.70625 13.4428C7.4125 13.7365 6.9375 13.7365 6.64687 13.4428L5.95312 12.749C5.65625 12.4522 5.6625 11.9678 5.96562 11.6772L9.73125 8.08967H0.75C0.334375 8.08967 0 7.7553 0 7.33967V6.33967C0 5.92405 0.334375 5.58967 0.75 5.58967H9.73125L5.96562 2.00217C5.65937 1.71155 5.65312 1.22717 5.95312 0.930298Z" fill="black"/>
</svg>
