<svg width="20" height="21" viewBox="0 0 20 21" fill="none" xmlns="http://www.w3.org/2000/svg">
<path d="M8.12109 12.5129C7.58203 12.5129 7.14844 12.0793 7.14844 11.552C7.14844 11.0129 7.58203 10.5793 8.12109 10.5793C8.65234 10.5793 9.08203 11.0129 9.08203 11.552C9.08203 12.0833 8.64844 12.5129 8.12109 12.5129ZM19.9375 10.5793C19.9375 15.9309 15.6016 20.2668 10.25 20.2668C4.89844 20.2668 0.5625 15.9309 0.5625 10.5793C0.5625 5.22778 4.89844 0.891846 10.25 0.891846C15.6016 0.891846 19.9375 5.22778 19.9375 10.5793ZM14.7695 8.96997C14.4023 8.96997 14.0781 9.12231 13.8398 9.3606C12.9648 8.75513 11.7852 8.3645 10.4766 8.32153L11.1562 5.26294L13.3203 5.75122C13.3203 6.28247 13.7539 6.71216 14.2812 6.71216C14.8203 6.71216 15.2539 6.27075 15.2539 5.7395C15.2539 5.20825 14.8203 4.76685 14.2812 4.76685C13.9023 4.76685 13.5781 4.99341 13.418 5.30591L11.0273 4.77466C10.9102 4.74341 10.7891 4.82935 10.7578 4.94653L10.0117 8.32153C8.71484 8.37622 7.54687 8.76294 6.67188 9.36841C6.43359 9.11841 6.09766 8.96997 5.73047 8.96997C4.36719 8.96997 3.92188 10.802 5.16797 11.4231C5.125 11.6184 5.10156 11.8215 5.10156 12.0286C5.10156 14.0833 7.41406 15.7473 10.2578 15.7473C13.1133 15.7473 15.4258 14.0833 15.4258 12.0286C15.4258 11.8215 15.4023 11.6067 15.3516 11.4114C16.5742 10.7864 16.125 8.96997 14.7695 8.96997ZM12.0781 13.509C11.3672 14.22 9.10547 14.2083 8.42188 13.509C8.33594 13.4231 8.18359 13.4231 8.09766 13.509C8 13.6067 8 13.759 8.09766 13.845C8.98828 14.7356 11.5078 14.7356 12.4023 13.845C12.5 13.759 12.5 13.6067 12.4023 13.509C12.3164 13.4231 12.1641 13.4231 12.0781 13.509ZM12.3789 10.5793C11.8477 10.5793 11.418 11.0129 11.418 11.552C11.418 12.0833 11.8516 12.5129 12.3789 12.5129C12.918 12.5129 13.3516 12.0793 13.3516 11.552C13.3516 11.0129 12.9219 10.5793 12.3789 10.5793Z" fill="white" fill-opacity="0.92"/>
</svg>
