<svg width="14" height="14" viewBox="0 0 14 14" fill="none" xmlns="http://www.w3.org/2000/svg">
<path d="M7.19047 1.71762C7.07291 1.65502 6.94177 1.62229 6.80859 1.62229C6.67541 1.62229 6.54427 1.65502 6.42672 1.71762L1.55172 4.31762C1.42174 4.38683 1.31301 4.49007 1.23716 4.61629C1.16131 4.74252 1.12119 4.88698 1.12109 5.03424V5.69806L5.79297 8.50118L6.80859 7.89181L7.82422 8.50118L12.4961 5.69806V5.03424C12.496 4.88698 12.4559 4.74252 12.38 4.61629C12.3042 4.49007 12.1955 4.38683 12.0655 4.31762L7.19047 1.71762ZM12.4961 6.64543L8.61397 8.97487L12.4961 11.3043V6.64543ZM12.4677 12.2354L6.80859 8.83837L1.14953 12.2346C1.19627 12.4068 1.29837 12.5588 1.44007 12.6671C1.58177 12.7755 1.7552 12.8342 1.93359 12.8342H11.6836C11.862 12.8342 12.0354 12.7755 12.1771 12.6671C12.3188 12.5588 12.4209 12.4076 12.4677 12.2354ZM1.12109 11.3035L5.00322 8.97406L1.12109 6.64543V11.3035ZM6.04403 1.00018C6.27934 0.874712 6.54192 0.809082 6.80859 0.809082C7.07527 0.809082 7.33784 0.874712 7.57316 1.00018L12.4482 3.60018C12.7081 3.73878 12.9255 3.94543 13.077 4.19803C13.2286 4.45062 13.3086 4.73967 13.3086 5.03424V12.0217C13.3086 12.4527 13.1374 12.866 12.8326 13.1708C12.5279 13.4755 12.1146 13.6467 11.6836 13.6467H1.93359C1.50262 13.6467 1.08929 13.4755 0.784545 13.1708C0.479799 12.866 0.308594 12.4527 0.308594 12.0217V5.03424C0.308564 4.73967 0.388609 4.45062 0.540168 4.19803C0.691726 3.94543 0.909097 3.73878 1.16903 3.60018L6.04403 1.00018Z" fill="white"/>
</svg>
