<svg width="21" height="21" viewBox="0 0 21 21" fill="none" xmlns="http://www.w3.org/2000/svg">
<path d="M10.625 0.891846C5.27344 0.891846 0.9375 5.22778 0.9375 10.5793C0.9375 15.9309 5.27344 20.2668 10.625 20.2668C15.9766 20.2668 20.3125 15.9309 20.3125 10.5793C20.3125 5.22778 15.9766 0.891846 10.625 0.891846ZM15.3828 7.52856L13.793 15.0208C13.6758 15.552 13.3594 15.6809 12.918 15.4309L10.4961 13.6458L9.32812 14.7708C9.19922 14.8997 9.08984 15.009 8.83984 15.009L9.01172 12.5442L13.5 8.4895C13.6953 8.31763 13.457 8.21997 13.1992 8.39185L7.65234 11.884L5.26172 11.1379C4.74219 10.9739 4.73047 10.6184 5.37109 10.3684L14.7109 6.76685C15.1445 6.6106 15.5234 6.87231 15.3828 7.52856Z" fill="white" fill-opacity="0.92"/>
</svg>
