<svg width="14" height="11" viewBox="0 0 14 11" fill="none" xmlns="http://www.w3.org/2000/svg">
<path d="M0.402344 2.51782C0.402344 2.08685 0.573549 1.67352 0.878295 1.36877C1.18304 1.06403 1.59637 0.892822 2.02734 0.892822H11.7773C12.2083 0.892822 12.6216 1.06403 12.9264 1.36877C13.2311 1.67352 13.4023 2.08685 13.4023 2.51782V9.01782C13.4023 9.4488 13.2311 9.86212 12.9264 10.1669C12.6216 10.4716 12.2083 10.6428 11.7773 10.6428H2.02734C1.59637 10.6428 1.18304 10.4716 0.878295 10.1669C0.573549 9.86212 0.402344 9.4488 0.402344 9.01782V2.51782ZM2.02734 1.70532C1.81186 1.70532 1.60519 1.79092 1.45282 1.9433C1.30045 2.09567 1.21484 2.30233 1.21484 2.51782V2.69413L6.90234 6.10663L12.5898 2.69413V2.51782C12.5898 2.30233 12.5042 2.09567 12.3519 1.9433C12.1995 1.79092 11.9928 1.70532 11.7773 1.70532H2.02734ZM12.5898 3.64151L8.76459 5.93682L12.5898 8.29063V3.64151ZM12.5622 9.22826L7.97972 6.40807L6.90234 7.05401L5.82497 6.40807L1.24247 9.22745C1.28864 9.40035 1.3906 9.55316 1.53252 9.66218C1.67444 9.77119 1.84839 9.8303 2.02734 9.83032H11.7773C11.9562 9.83034 12.1301 9.77135 12.272 9.6625C12.4139 9.55364 12.5159 9.40101 12.5622 9.22826ZM1.21484 8.29063L5.04009 5.93682L1.21484 3.64151V8.29063Z" fill="white"/>
</svg>
