<svg width="14" height="11" viewBox="0 0 14 11" fill="none" xmlns="http://www.w3.org/2000/svg">
<path d="M0.320312 2.45898C0.320313 2.02801 0.491517 1.61468 0.796264 1.30994C1.10101 1.00519 1.51434 0.833984 1.94531 0.833984H11.6953C12.1263 0.833984 12.5396 1.00519 12.8444 1.30994C13.1491 1.61468 13.3203 2.02801 13.3203 2.45898V8.95898C13.3203 9.38996 13.1491 9.80329 12.8444 10.108C12.5396 10.4128 12.1263 10.584 11.6953 10.584H1.94531C1.51434 10.584 1.10101 10.4128 0.796264 10.108C0.491517 9.80329 0.320313 9.38996 0.320312 8.95898V2.45898ZM1.94531 1.64648C1.72982 1.64648 1.52316 1.73209 1.37079 1.88446C1.21841 2.03683 1.13281 2.2435 1.13281 2.45898V2.6353L6.82031 6.0478L12.5078 2.6353V2.45898C12.5078 2.2435 12.4222 2.03683 12.2698 1.88446C12.1175 1.73209 11.9108 1.64648 11.6953 1.64648H1.94531ZM12.5078 3.58267L8.68256 5.87798L12.5078 8.2318V3.58267ZM12.4802 9.16942L7.89769 6.34923L6.82031 6.99517L5.74294 6.34923L1.16044 9.16861C1.20661 9.34151 1.30857 9.49433 1.45049 9.60334C1.59241 9.71235 1.76636 9.77146 1.94531 9.77148H11.6953C11.8742 9.77151 12.048 9.71252 12.1899 9.60366C12.3318 9.49481 12.4339 9.34217 12.4802 9.16942ZM1.13281 8.2318L4.95806 5.87798L1.13281 3.58267V8.2318Z" fill="white"/>
</svg>
