<svg width="31" height="28" viewBox="0 0 31 28" fill="none" xmlns="http://www.w3.org/2000/svg">
<path fill-rule="evenodd" clip-rule="evenodd" d="M0 2.8988C0 2.30207 0.23329 1.72977 0.648549 1.30781C1.06381 0.885857 1.62702 0.648804 2.21429 0.648804H28.7857C29.373 0.648804 29.9362 0.885857 30.3515 1.30781C30.7667 1.72977 31 2.30207 31 2.8988C31 3.49554 30.7667 4.06784 30.3515 4.48979C29.9362 4.91175 29.373 5.1488 28.7857 5.1488H2.21429C1.62702 5.1488 1.06381 4.91175 0.648549 4.48979C0.23329 4.06784 0 3.49554 0 2.8988ZM0 14.1488C0 13.5521 0.23329 12.9798 0.648549 12.5578C1.06381 12.1359 1.62702 11.8988 2.21429 11.8988H28.7857C29.373 11.8988 29.9362 12.1359 30.3515 12.5578C30.7667 12.9798 31 13.5521 31 14.1488C31 14.7455 30.7667 15.3178 30.3515 15.7398C29.9362 16.1618 29.373 16.3988 28.7857 16.3988H2.21429C1.62702 16.3988 1.06381 16.1618 0.648549 15.7398C0.23329 15.3178 0 14.7455 0 14.1488ZM0 25.3988C0 24.8021 0.23329 24.2298 0.648549 23.8078C1.06381 23.3859 1.62702 23.1488 2.21429 23.1488H28.7857C29.373 23.1488 29.9362 23.3859 30.3515 23.8078C30.7667 24.2298 31 24.8021 31 25.3988C31 25.9955 30.7667 26.5678 30.3515 26.9898C29.9362 27.4118 29.373 27.6488 28.7857 27.6488H2.21429C1.62702 27.6488 1.06381 27.4118 0.648549 26.9898C0.23329 26.5678 0 25.9955 0 25.3988Z" fill="#718096"/>
</svg>
